<svg width="34" height="34" viewBox="0 0 34 34" fill="none" xmlns="http://www.w3.org/2000/svg">
<g id="check-circle" clip-path="url(#clip0_126_92)">
<path id="Vector" d="M26.571 11.4013C26.8444 11.6804 26.8416 12.1295 26.5625 12.4043L19.0187 19.8333C18.0469 20.7839 16.7974 21.2599 15.5479 21.2599C14.3112 21.2599 13.073 20.7938 12.1054 19.8602L8.85275 16.6529C8.57508 16.3781 8.57225 15.9304 8.84567 15.6513C9.12333 15.3722 9.571 15.3694 9.84867 15.6442L13.0957 18.8459C14.4755 20.179 16.6444 20.1733 18.0257 18.8204L25.568 11.3928C25.8442 11.1194 26.2947 11.1222 26.5696 11.3999L26.571 11.4013ZM34 17C34 26.3741 26.3741 34 17 34C7.62592 34 0 26.3741 0 17C0 7.62592 7.62592 0 17 0C26.3741 0 34 7.62592 34 17ZM32.5833 17C32.5833 8.40792 25.5921 1.41667 17 1.41667C8.40792 1.41667 1.41667 8.40792 1.41667 17C1.41667 25.5921 8.40792 32.5833 17 32.5833C25.5921 32.5833 32.5833 25.5921 32.5833 17Z" fill="#9B735A"/>
</g>
<defs>
<clipPath id="clip0_126_92">
<rect width="34" height="34" fill="white"/>
</clipPath>
</defs>
</svg>
