<svg width="34" height="34" viewBox="0 0 34 34" fill="none" xmlns="http://www.w3.org/2000/svg">
<g id="fi_3251480" clip-path="url(#clip0_126_2262)">
<g id="Page-1">
<g id="030---Brush-Settings">
<path id="Shape" d="M7.96657 12.4816C8.17076 12.4236 8.39035 12.4802 8.54117 12.6295L11.3331 15.4192C10.9197 16.1426 10.5563 16.8935 10.2457 17.6666C10.0033 17.5671 9.74384 17.5159 9.48183 17.5159C8.93522 17.5149 8.4115 17.7353 8.03003 18.1268C7.56028 18.6077 7.35102 19.2854 7.4679 19.9475C5.89431 20.0513 4.41398 20.7307 3.30913 21.856C0.929133 24.2842 1.09063 26.7333 2.12707 29.8987C2.61893 31.3998 0.3704 32.3869 0.346599 32.396C0.122618 32.4911 -0.0156314 32.7186 0.00311051 32.9612C0.0218524 33.2038 0.193401 33.4074 0.429333 33.467C1.79402 33.8168 3.19686 33.9959 4.60567 34.0002C7.82093 34.0002 10.7053 33.0142 12.5084 31.1839C13.6176 30.046 14.2812 28.5477 14.3784 26.9617C14.4906 26.9826 14.6043 26.9939 14.7184 26.9957C15.2653 26.9966 15.7894 26.7762 16.1713 26.3848C16.7512 25.7889 16.9248 24.9069 16.6139 24.1357C17.4011 23.8088 18.1636 23.4253 18.8953 22.9882L21.3654 25.4589C21.5178 25.611 21.5746 25.8344 21.5133 26.0408C20.9367 28.2388 21.5681 30.5777 23.1725 32.1869C24.3272 33.3529 25.9005 34.0081 27.5415 34.0065C28.3631 34.0043 29.1769 33.847 29.9402 33.5429C30.118 33.4729 30.2485 33.318 30.2873 33.1309C30.3261 32.9438 30.2681 32.7497 30.1329 32.6147L26.8513 29.3388C26.7181 29.2043 26.6524 29.0171 26.6722 28.8288L26.8825 27.3929C26.9201 27.1273 27.1295 26.919 27.3953 26.8829L28.8182 26.6749C29.0061 26.6519 29.1945 26.7143 29.3316 26.8449L32.6126 30.1316C32.7476 30.2668 32.9417 30.3249 33.1288 30.286C33.3158 30.2472 33.4708 30.1167 33.5408 29.9389C34.4982 27.6171 33.9638 24.9473 32.1865 23.1729C30.5744 21.57 28.2336 20.9412 26.0353 21.5205C25.8306 21.5789 25.6104 21.5216 25.4601 21.3709L23.1595 19.0708C27.0944 14.4734 36.1577 3.25628 33.4796 0.532883C33.0946 0.164714 32.5745 -0.0280422 32.0425 0.000216016C28.3507 0.000216016 19.2755 7.39068 15.1457 11.0582L12.6246 8.53705C12.4777 8.38618 12.423 8.16818 12.4812 7.96585C13.0651 5.76685 12.435 3.42326 10.8271 1.81355C9.05487 0.0348267 6.38503 -0.499858 4.0645 0.459216C3.88686 0.52921 3.75641 0.683953 3.71748 0.870871C3.67854 1.05779 3.73635 1.25175 3.87127 1.38685L7.15793 4.67805C7.28879 4.80732 7.3497 4.99152 7.3217 5.17332L7.11827 6.61152C7.07899 6.8728 6.87403 7.07798 6.6128 7.11755L5.1644 7.32268C4.98292 7.34739 4.8005 7.28427 4.6731 7.15268L1.38643 3.87168C1.25147 3.73724 1.05799 3.6796 0.871461 3.71828C0.68493 3.75695 0.530314 3.88676 0.459933 4.06378C-0.499268 6.3841 0.0349441 9.05382 1.81313 10.8264C3.4226 12.4355 5.76701 13.0662 7.96657 12.4816ZM13.6899 14.0145L20.21 20.6445C18.9316 21.7268 17.4819 22.5886 15.9203 23.1945L11.1847 18.3778C11.7764 16.7969 12.6221 15.3231 13.6882 14.0145H13.6899ZM11.702 30.3911C9.6541 32.4702 5.9736 33.3095 2.0687 32.6578C2.9255 31.9466 3.64007 30.8728 3.206 29.5491C2.1112 26.2057 2.34183 24.4655 4.1206 22.6539C5.15304 21.6037 6.57611 21.0309 8.04817 21.0729L8.6001 21.6344C6.93917 22.0761 5.51606 23.1483 4.63343 24.623C4.51404 24.7914 4.49565 25.0114 4.58543 25.1973C4.67521 25.3831 4.85895 25.5055 5.06506 25.5166C5.27118 25.5278 5.46705 25.426 5.57637 25.2509C7.0497 23.0409 8.73497 22.6743 9.58893 22.6391L10.074 23.1327L6.97093 26.2363C6.82363 26.3786 6.76455 26.5893 6.81641 26.7874C6.86826 26.9855 7.02299 27.1403 7.22111 27.1921C7.41924 27.244 7.62992 27.1849 7.7722 27.0376L10.869 23.9408L11.4414 24.5233C11.3909 25.8833 10.7965 28.1449 7.70817 29.519C7.46848 29.6295 7.33675 29.8907 7.39052 30.1491C7.44428 30.4075 7.66928 30.5946 7.93313 30.6002C8.01222 30.6004 8.09044 30.5838 8.16263 30.5515C11.1433 29.2249 12.1531 27.1645 12.4557 25.5569L13.2598 26.3723C13.3077 27.8677 12.7447 29.3181 11.7003 30.3894L11.702 30.3911ZM15.3701 25.5926C15.2005 25.7664 14.968 25.8645 14.7252 25.8646C14.4827 25.8645 14.2505 25.7664 14.0815 25.5926L8.8381 20.2608C8.47494 19.8888 8.47494 19.295 8.8381 18.9229C9.00716 18.7491 9.23934 18.651 9.48183 18.6509C9.72471 18.6507 9.95733 18.7488 10.1267 18.9229L15.3684 24.2536C15.73 24.626 15.73 25.2184 15.3684 25.5909L15.3701 25.5926ZM24.6589 22.1739C25.0962 22.6116 25.7352 22.7804 26.3317 22.6159C28.1382 22.1406 30.0612 22.6582 31.3852 23.9759C32.6166 25.2007 33.132 26.9725 32.7497 28.6668L30.1306 26.0431C29.7425 25.6659 29.2039 25.4857 28.6669 25.5535L27.2349 25.7626C26.4685 25.8668 25.8658 26.4695 25.7616 27.2359L25.5497 28.6736C25.4853 29.2099 25.6679 29.7464 26.0461 30.1322L28.6646 32.7462C26.9704 33.1283 25.1987 32.6129 23.9738 31.3817C22.6583 30.0592 22.1409 28.1393 22.6138 26.3349C22.7793 25.7366 22.6112 25.0955 22.1735 24.6553L19.8717 22.3535C20.4257 21.9656 20.9443 21.5294 21.4215 21.0502C21.4459 21.0258 21.8182 20.6133 22.4171 19.9271L24.6589 22.1739ZM32.6715 1.32792C34.5251 3.21322 25.0011 15.6079 21.0107 19.8432L14.477 13.1996C17.5194 10.2801 28.4136 1.13355 32.0425 1.13355C32.2698 1.11122 32.4965 1.18127 32.6715 1.32792ZM1.25157 5.33878L3.8673 7.95055C4.24833 8.34018 4.79306 8.52351 5.33213 8.44355L6.7726 8.23955C7.53117 8.1268 8.12668 7.53106 8.23913 6.77245L8.44313 5.34162C8.52765 4.80196 8.34635 4.25471 7.95637 3.87225L5.33837 1.25198C7.03197 0.868836 8.80352 1.3849 10.0264 2.61765C11.3476 3.94078 11.8656 5.86663 11.3864 7.67402C11.2229 8.2692 11.3914 8.90635 11.8278 9.34285L14.3025 11.8175C13.8412 12.2396 13.4842 12.5785 13.2711 12.7956C12.7815 13.3005 12.3385 13.8486 11.9474 14.4332L9.3464 11.8316C8.90924 11.394 8.27102 11.2242 7.67417 11.3868C5.86626 11.866 3.93994 11.348 2.6161 10.0268C1.38472 8.80313 0.869247 7.03216 1.25157 5.33878Z" fill="#9B735A"/>
</g>
</g>
</g>
<defs>
<clipPath id="clip0_126_2262">
<rect width="34" height="34" fill="white"/>
</clipPath>
</defs>
</svg>
