<svg width="34" height="34" viewBox="0 0 34 34" fill="none" xmlns="http://www.w3.org/2000/svg">
<g id="hand-sparkles" clip-path="url(#clip0_126_87)">
<path id="Vector" d="M34.0001 7.79162V23.375C34.0001 23.766 33.6828 24.0833 33.2918 24.0833C32.9008 24.0833 32.5835 23.766 32.5835 23.375V7.79162C32.5835 7.16828 32.3115 6.57753 31.8355 6.17237C31.3524 5.76012 30.7375 5.59153 30.0958 5.69637C29.0914 5.85928 28.3335 6.82545 28.3335 7.9432V14.875C28.3335 15.266 28.0161 15.5833 27.6251 15.5833C27.2341 15.5833 26.9168 15.266 26.9168 14.875V4.95828C26.9168 3.7867 25.9634 2.83328 24.7918 2.83328C23.6202 2.83328 22.6668 3.7867 22.6668 4.95828V14.875C22.6668 15.266 22.3495 15.5833 21.9585 15.5833C21.5675 15.5833 21.2501 15.266 21.2501 14.875V3.54162C21.2501 2.37003 20.2967 1.41662 19.1251 1.41662C17.9535 1.41662 17.0001 2.37003 17.0001 3.54162V14.875C17.0001 15.266 16.6828 15.5833 16.2918 15.5833C15.9008 15.5833 15.5835 15.266 15.5835 14.875V6.52653C15.5835 5.40878 14.8255 4.44262 13.8197 4.2797C13.1836 4.1777 12.566 4.34487 12.0815 4.7557C11.6055 5.16087 11.332 5.75162 11.332 6.37495V23.375C11.332 23.6569 11.1649 23.9119 10.9056 24.0238C10.6478 24.1357 10.3475 24.0847 10.1392 23.892L6.40346 20.4042C5.54921 19.6066 4.20479 19.6505 3.40579 20.5048C2.60537 21.3605 2.64929 22.7105 3.50496 23.5124L9.82612 29.6069C11.8165 31.525 14.436 32.5833 17.2013 32.5833H23.3737C23.7647 32.5833 24.082 32.9006 24.082 33.2916C24.082 33.6826 23.7647 34 23.3737 34H17.2013C14.0676 34 11.0997 32.8014 8.84296 30.6269L2.52887 24.5395C1.11221 23.2106 1.03854 20.9652 2.37162 19.5386C3.01621 18.8487 3.89171 18.4506 4.83662 18.418C5.75321 18.3883 6.67971 18.724 7.37104 19.3686L9.91537 21.743V6.37495C9.91537 5.33512 10.3701 4.35053 11.1635 3.6762C11.9582 3.00187 13.0108 2.7157 14.0464 2.88003C14.6201 2.97354 15.1386 3.2257 15.582 3.57704V3.5402C15.582 1.58804 17.1715 -0.00146484 19.1237 -0.00146484C20.6495 -0.00146484 21.9415 0.973202 22.4387 2.32895C23.0663 1.76795 23.8851 1.4152 24.7904 1.4152C26.744 1.4152 28.332 3.0047 28.332 4.95687V4.99228C28.7755 4.64095 29.294 4.38878 29.8677 4.29529C30.9033 4.12812 31.9587 4.4157 32.7506 5.09145C33.544 5.76579 33.9987 6.74895 33.9987 7.7902L34.0001 7.79162ZM24.0835 21.1862C24.0835 20.8618 23.8625 20.577 23.5465 20.4991L21.1255 19.8942L20.5205 17.4731C20.3633 16.8427 19.3036 16.8427 19.145 17.4731L18.5429 19.8843L16.1317 20.4425C15.8144 20.5161 15.5877 20.7952 15.582 21.121C15.5764 21.4469 15.7917 21.733 16.1062 21.8166L18.5372 22.4711L19.145 24.9007C19.2243 25.2166 19.5076 25.4376 19.832 25.4376C20.1565 25.4376 20.4412 25.2166 20.5191 24.9007L21.124 22.4796L23.5451 21.8747C23.861 21.7954 24.082 21.512 24.082 21.1876L24.0835 21.1862ZM34.0001 28.3333C34.0001 28.6237 33.8245 28.883 33.5553 28.9906L30.2955 30.294L28.9908 33.5537C28.8845 33.8229 28.6225 33.9985 28.3335 33.9985C28.0445 33.9985 27.7824 33.8214 27.6761 33.5537L26.3685 30.2869L23.0989 28.9099C22.8325 28.7965 22.6597 28.533 22.6654 28.244C22.671 27.955 22.8524 27.6972 23.123 27.5952L26.3728 26.3655L27.6747 23.1129C27.8872 22.5745 28.7755 22.5745 28.9894 23.1129L30.2941 26.3726L33.5539 27.6759C33.823 27.7836 34.0001 28.0443 34.0001 28.3333ZM31.3835 28.3333L29.4866 27.574C29.3067 27.5017 29.1636 27.36 29.0928 27.1787L28.3335 25.2818L27.5741 27.1787C27.5005 27.3629 27.3531 27.5074 27.1675 27.5782L25.2834 28.2908L27.193 29.0954C27.3673 29.1691 27.5061 29.3094 27.5755 29.485L28.3349 31.382L29.0942 29.485C29.1665 29.3051 29.3081 29.162 29.488 29.0898L31.385 28.3305L31.3835 28.3333ZM2.87029 12.2655C2.96662 12.5545 3.23721 12.75 3.54179 12.75C3.84637 12.75 4.11696 12.5545 4.21329 12.2655L4.80971 10.4762L6.59896 9.87978C6.88796 9.78345 7.08346 9.51287 7.08346 9.20828C7.08346 8.9037 6.88796 8.63312 6.59896 8.53679L4.80971 7.94037L4.21329 6.15112C4.02062 5.57312 3.06296 5.57312 2.87029 6.15112L2.27671 7.93187L0.497374 8.48862C0.206957 8.57928 0.00579015 8.84562 0.000123488 9.15162C-0.00554318 9.45762 0.18429 9.73104 0.471874 9.83162L2.27104 10.4677L2.87029 12.2655Z" fill="#9B735A"/>
</g>
<defs>
<clipPath id="clip0_126_87">
<rect width="34" height="34" fill="white"/>
</clipPath>
</defs>
</svg>
