<svg width="52" height="52" viewBox="0 0 52 52" fill="none" xmlns="http://www.w3.org/2000/svg">
<g id="fi_9736103">
<g id="Group">
<path id="Vector" d="M39.2031 24.7026H27.8955C27.447 24.7026 27.083 25.0666 27.083 25.5151V33.3184C27.083 33.7669 27.447 34.1309 27.8955 34.1309H39.2031C39.6516 34.1309 40.0156 33.7669 40.0156 33.3184V25.5151C40.0156 25.0666 39.6516 24.7026 39.2031 24.7026ZM38.3906 32.5059H28.708V26.3276H38.3906V32.5059Z" fill="white"/>
<path id="Vector_2" d="M44.3788 23.3571C46.0274 23.3571 47.3689 22.0197 47.3689 20.3752C47.3689 19.3571 46.831 18.387 45.9616 17.8402L26.4291 5.70958C26.1667 5.54708 25.8343 5.54627 25.5711 5.70958L19.3473 9.57871C19.1174 9.72171 18.9736 9.96952 18.9638 10.2409L18.8168 14.5463L13.1228 13.6729C12.9318 13.6436 12.736 13.6843 12.5711 13.7858L6.03535 17.8426C5.16922 18.387 4.63135 19.3571 4.63135 20.3752C4.63135 22.0205 5.97279 23.3595 7.62135 23.3595C7.95041 23.3595 8.2746 23.297 8.5866 23.1889V39.8151H6.64635C6.19785 39.8151 5.83385 40.1791 5.83385 40.6276V45.6001C5.83385 46.0486 6.19785 46.4126 6.64635 46.4126H31.0782C31.2033 46.4126 31.3268 46.3833 31.439 46.3281L35.2374 44.4439L38.3842 46.3005C38.5093 46.3744 38.6524 46.4134 38.797 46.4134H45.3539C45.8023 46.4134 46.1664 46.0494 46.1664 45.6009V40.6284C46.1664 40.1799 45.8023 39.8159 45.3539 39.8159H43.4136V23.1897C43.7215 23.297 44.0433 23.3571 44.3788 23.3571ZM20.5734 10.7292L26.0001 7.35652L45.1003 19.219C45.4968 19.4685 45.7439 19.9113 45.7439 20.3752C45.7439 21.2129 45.0354 21.7321 44.3788 21.7321C44.1245 21.7321 43.8865 21.6638 43.6703 21.529L26.4291 10.8202C26.2975 10.739 26.1488 10.6983 26.0001 10.6983C25.8514 10.6983 25.7027 10.739 25.5719 10.8202L20.4621 13.9906L20.5734 10.7292ZM7.62135 21.7345C6.96485 21.7345 6.25635 21.2145 6.25635 20.3752C6.25635 19.9113 6.50254 19.4676 6.89579 19.2215L13.174 15.3255L17.299 15.9585L8.33066 21.529C8.10966 21.6655 7.8716 21.7345 7.62135 21.7345ZM44.5414 44.7876H39.0188L35.6843 42.8205C35.4478 42.6816 35.157 42.671 34.91 42.7921L30.8881 44.7876H7.45885V41.4401H42.6011H44.5414V44.7876ZM21.836 36.7715H15.7423V26.3276H21.836V36.7715ZM14.9639 38.3965H22.6152V39.8151H14.9639V38.3965ZM24.2394 39.8151V37.584C24.2394 37.1468 23.8925 36.7966 23.461 36.778V25.5151C23.461 25.0666 23.097 24.7026 22.6485 24.7026H14.9298C14.4813 24.7026 14.1173 25.0666 14.1173 25.5151V36.778C13.685 36.7966 13.3389 37.1468 13.3389 37.584V39.8151H10.2116V22.274C12.7076 20.723 23.4781 14.032 26.0001 12.4671L34.0958 17.4957L31.7428 18.76L27.7819 17.1293C27.4862 17.0074 27.1449 17.0716 26.9117 17.2926L24.7277 19.375C24.4027 19.6846 24.3905 20.1989 24.7001 20.5239C24.8594 20.6913 25.0738 20.7758 25.2883 20.7758C25.4898 20.7758 25.6922 20.701 25.849 20.5515L27.6503 18.8339L31.4788 20.4101C31.7038 20.5028 31.9582 20.489 32.1727 20.3744L35.6867 18.4853L41.787 22.274V39.8151H24.2394Z" fill="white"/>
</g>
</g>
</svg>
