<svg width="52" height="52" viewBox="0 0 52 52" fill="none" xmlns="http://www.w3.org/2000/svg">
<g id="fi_767201" clip-path="url(#clip0_126_1187)">
<g id="Group">
<g id="Group_2">
<path id="Vector" d="M10.5681 14.6885C9.23889 14.6885 8.15723 15.7701 8.15723 17.0994V19.4869C8.15723 19.8463 8.44783 20.1369 8.80724 20.1369H12.329C12.6884 20.1369 12.979 19.8463 12.979 19.4869V17.0994C12.979 15.7701 11.8974 14.6885 10.5681 14.6885ZM11.679 18.8369H9.45726V17.0994C9.45726 16.4871 9.95582 15.9885 10.5681 15.9885C11.1804 15.9885 11.679 16.4871 11.679 17.0994V18.8369Z" fill="white"/>
</g>
</g>
<g id="Group_3">
<g id="Group_4">
<path id="Vector_2" d="M17.5554 14.6885C16.2262 14.6885 15.1445 15.7701 15.1445 17.0994V19.4869C15.1445 19.8463 15.4351 20.1369 15.7945 20.1369H19.3163C19.6757 20.1369 19.9663 19.8463 19.9663 19.4869V17.0994C19.9663 15.7701 18.8847 14.6885 17.5554 14.6885ZM18.6663 18.8369H16.4446V17.0994C16.4446 16.4871 16.9431 15.9885 17.5554 15.9885C18.1677 15.9885 18.6663 16.4871 18.6663 17.0994V18.8369Z" fill="white"/>
</g>
</g>
<g id="Group_5">
<g id="Group_6">
<path id="Vector_3" d="M10.5369 22.0327C9.20764 22.0327 8.12598 23.1144 8.12598 24.4442V26.8312C8.12598 27.1906 8.41658 27.4812 8.77599 27.4812H12.2978C12.6572 27.4812 12.9478 27.1906 12.9478 26.8312V24.4442C12.9478 23.1144 11.8662 22.0327 10.5369 22.0327ZM11.6477 26.1811H9.42601V24.4442C9.42601 23.8313 9.92457 23.3327 10.5369 23.3327C11.1492 23.3327 11.6477 23.8313 11.6477 24.4442V26.1811Z" fill="white"/>
</g>
</g>
<g id="Group_7">
<g id="Group_8">
<path id="Vector_4" d="M17.5242 22.0327C16.1949 22.0327 15.1133 23.1144 15.1133 24.4442V26.8312C15.1133 27.1906 15.4039 27.4812 15.7633 27.4812H19.2851C19.6445 27.4812 19.9351 27.1906 19.9351 26.8312V24.4442C19.9351 23.1144 18.8535 22.0327 17.5242 22.0327ZM18.635 26.1811H16.4133V24.4442C16.4133 23.8313 16.9119 23.3327 17.5242 23.3327C18.1365 23.3327 18.635 23.8313 18.635 24.4442V26.1811Z" fill="white"/>
</g>
</g>
<g id="Group_9">
<g id="Group_10">
<path id="Vector_5" d="M10.5369 29.3452C9.20764 29.3452 8.12598 30.4269 8.12598 31.7567V34.1437C8.12598 34.5031 8.41658 34.7937 8.77599 34.7937H12.2978C12.6572 34.7937 12.9478 34.5031 12.9478 34.1437V31.7567C12.9478 30.4269 11.8662 29.3452 10.5369 29.3452ZM11.6477 33.4936H9.42601V31.7567C9.42601 31.1438 9.92457 30.6452 10.5369 30.6452C11.1492 30.6452 11.6477 31.1438 11.6477 31.7567V33.4936Z" fill="white"/>
</g>
</g>
<g id="Group_11">
<g id="Group_12">
<path id="Vector_6" d="M17.5242 29.3452C16.1949 29.3452 15.1133 30.4269 15.1133 31.7567V34.1437C15.1133 34.5031 15.4039 34.7937 15.7633 34.7937H19.2851C19.6445 34.7937 19.9351 34.5031 19.9351 34.1437V31.7567C19.9351 30.4269 18.8535 29.3452 17.5242 29.3452ZM18.635 33.4936H16.4133V31.7567C16.4133 31.1438 16.9119 30.6452 17.5242 30.6452C18.1365 30.6452 18.635 31.1438 18.635 31.7567V33.4936Z" fill="white"/>
</g>
</g>
<g id="Group_13">
<g id="Group_14">
<path id="Vector_7" d="M44.2968 33.0151H41.3893C41.0299 33.0151 40.7393 33.3057 40.7393 33.6652V37.9663C40.7393 38.3251 41.0299 38.6163 41.3893 38.6163H44.2968C44.6562 38.6163 44.9468 38.3257 44.9468 37.9663V33.6652C44.9468 33.3057 44.6562 33.0151 44.2968 33.0151ZM43.6468 37.3157H42.0393V34.3145H43.6468V37.3157Z" fill="white"/>
</g>
</g>
<g id="Group_15">
<g id="Group_16">
<path id="Vector_8" d="M44.2968 25.2969H41.3893C41.0299 25.2969 40.7393 25.5875 40.7393 25.9469V30.2487C40.7393 30.6075 41.0299 30.8987 41.3893 30.8987H44.2968C44.6562 30.8987 44.9468 30.6081 44.9468 30.2487V25.9469C44.9468 25.5874 44.6562 25.2969 44.2968 25.2969ZM43.6468 29.598H42.0393V26.5963H43.6468V29.598Z" fill="white"/>
</g>
</g>
<g id="Group_17">
<g id="Group_18">
<path id="Vector_9" d="M37.5424 33.0151H34.6349C34.2755 33.0151 33.9849 33.3057 33.9849 33.6652V37.9663C33.9849 38.3251 34.2755 38.6163 34.6349 38.6163H37.5424C37.9018 38.6163 38.1924 38.3257 38.1924 37.9663V33.6652C38.1924 33.3057 37.9018 33.0151 37.5424 33.0151ZM36.8924 37.3157H35.2849V34.3145H36.8924V37.3157Z" fill="white"/>
</g>
</g>
<g id="Group_19">
<g id="Group_20">
<path id="Vector_10" d="M37.5424 25.2969H34.6349C34.2755 25.2969 33.9849 25.5875 33.9849 25.9469V30.2487C33.9849 30.6075 34.2755 30.8987 34.6349 30.8987H37.5424C37.9018 30.8987 38.1924 30.6081 38.1924 30.2487V25.9469C38.1924 25.5874 37.9018 25.2969 37.5424 25.2969ZM36.8924 29.598H35.2849V26.5963H36.8924V29.598Z" fill="white"/>
</g>
</g>
<g id="Group_21">
<g id="Group_22">
<path id="Vector_11" d="M30.7885 33.0151H27.881C27.5216 33.0151 27.231 33.3057 27.231 33.6652V37.9663C27.231 38.3251 27.5216 38.6163 27.881 38.6163H30.7885C31.1479 38.6163 31.4385 38.3257 31.4385 37.9663V33.6652C31.4385 33.3057 31.1479 33.0151 30.7885 33.0151ZM30.1385 37.3157H28.531V34.3145H30.1385V37.3157Z" fill="white"/>
</g>
</g>
<g id="Group_23">
<g id="Group_24">
<path id="Vector_12" d="M30.7885 25.2969H27.881C27.5216 25.2969 27.231 25.5875 27.231 25.9469V30.2487C27.231 30.6075 27.5216 30.8987 27.881 30.8987H30.7885C31.1479 30.8987 31.4385 30.6081 31.4385 30.2487V25.9469C31.4385 25.5874 31.1479 25.2969 30.7885 25.2969ZM30.1385 29.598H28.531V26.5963H30.1385V29.598Z" fill="white"/>
</g>
</g>
<g id="Group_25">
<g id="Group_26">
<path id="Vector_13" d="M30.7885 40.7568H27.881C27.5216 40.7568 27.231 41.0474 27.231 41.4069V45.7086C27.231 46.068 27.5216 46.3587 27.881 46.3587H30.7885C31.1479 46.3587 31.4385 46.068 31.4385 45.7086V41.4069C31.4385 41.0473 31.1479 40.7568 30.7885 40.7568ZM30.1385 45.0586H28.531V42.0569H30.1385V45.0586Z" fill="white"/>
</g>
</g>
<g id="Group_27">
<g id="Group_28">
<path id="Vector_14" d="M44.2968 17.5796H41.3893C41.0299 17.5796 40.7393 17.8702 40.7393 18.2296V22.5308C40.7393 22.8895 41.0299 23.1808 41.3893 23.1808H44.2968C44.6562 23.1808 44.9468 22.8902 44.9468 22.5308V18.2296C44.9468 17.8701 44.6562 17.5796 44.2968 17.5796ZM43.6468 21.8801H42.0393V18.879H43.6468V21.8801Z" fill="white"/>
</g>
</g>
<g id="Group_29">
<g id="Group_30">
<path id="Vector_15" d="M37.5424 17.5796H34.6349C34.2755 17.5796 33.9849 17.8702 33.9849 18.2296V22.5308C33.9849 22.8895 34.2755 23.1808 34.6349 23.1808H37.5424C37.9018 23.1808 38.1924 22.8902 38.1924 22.5308V18.2296C38.1924 17.8701 37.9018 17.5796 37.5424 17.5796ZM36.8924 21.8801H35.2849V18.879H36.8924V21.8801Z" fill="white"/>
</g>
</g>
<g id="Group_31">
<g id="Group_32">
<path id="Vector_16" d="M30.7885 17.5796H27.881C27.5216 17.5796 27.231 17.8702 27.231 18.2296V22.5308C27.231 22.8895 27.5216 23.1808 27.881 23.1808H30.7885C31.1479 23.1808 31.4385 22.8902 31.4385 22.5308V18.2296C31.4385 17.8701 31.1479 17.5796 30.7885 17.5796ZM30.1385 21.8801H28.531V18.879H30.1385V21.8801Z" fill="white"/>
</g>
</g>
<g id="Group_33">
<g id="Group_34">
<path id="Vector_17" d="M51.35 50.6592H48.8012V15.0663H49.76C50.1194 15.0663 50.41 14.7757 50.41 14.4163V11.1583C50.41 10.7989 50.1194 10.5083 49.76 10.5083H44.9317V7.25824C44.9317 6.89883 44.6411 6.60823 44.2817 6.60823H40.2133C39.8538 6.60823 39.5632 6.89883 39.5632 7.25824V10.5083H36.9651V7.25824C36.9651 6.89883 36.6745 6.60823 36.3151 6.60823H32.246C31.8866 6.60823 31.596 6.89883 31.596 7.25824V10.5083H24.4348V9.58395H24.7129C25.0723 9.58395 25.3629 9.29335 25.3629 8.93394V4.99626C25.3629 4.63685 25.0723 4.34625 24.7129 4.34625H16.8185V0.690543C16.8185 0.33113 16.5279 0.0405273 16.1685 0.0405273H12.7053C12.3459 0.0405273 12.0553 0.33113 12.0553 0.690543V4.34625H10.1136V0.690543C10.1136 0.33113 9.82298 0.0405273 9.46357 0.0405273H6.00097C5.64155 0.0405273 5.35095 0.33113 5.35095 0.690543V4.34625H3.37945C3.02003 4.34625 2.72943 4.63685 2.72943 4.99626V8.93406C2.72943 9.29348 3.02003 9.58408 3.37945 9.58408H3.7103V34.234C2.23608 34.518 1.12394 35.7499 1.12394 37.2208C1.12394 37.5269 1.17206 37.8266 1.26753 38.1165C0.850861 38.695 0.626021 39.3782 0.626021 40.0809C0.626021 40.4611 0.691023 40.8336 0.819756 41.1924C0.341385 41.8547 0.0813789 42.6412 0.0813789 43.4472C0.0813789 45.4577 1.66541 47.1231 3.72413 47.4136L3.73188 50.6585H0.650016C0.290603 50.6585 0 50.9491 0 51.3085C0 51.6679 0.289206 51.9591 0.648746 51.9591H51.35C51.7094 51.9591 52 51.6685 52 51.3091C52 50.9497 51.7094 50.6592 51.35 50.6592ZM40.8633 7.90826H43.6317V10.5083H40.8633V7.90826ZM32.896 7.90826H35.6651V10.5083H32.896V7.90826ZM49.11 11.8084V13.7661H22.8981V11.8084H49.11ZM13.3553 1.34119H15.5185V4.34688H13.3553V1.34119ZM6.65035 1.34119H8.81292V4.34688H6.65035V1.34119ZM4.02946 5.64691H24.0629V8.28468H4.02946V5.64691ZM1.38065 43.4479C1.38065 42.8141 1.61336 42.2206 2.05339 41.7299C2.23214 41.5303 2.27048 41.2418 2.14962 41.0026C2.00083 40.7082 1.92466 40.398 1.92466 40.0815C1.92466 39.5673 2.12614 39.0655 2.49215 38.6671C2.67421 38.4688 2.71572 38.1783 2.59486 37.9371C2.48047 37.7077 2.42258 37.4671 2.42258 37.2208C2.42258 36.2568 3.29159 35.4722 4.35904 35.4722C5.39386 35.4722 6.24345 36.2029 6.29347 37.1317L6.29601 37.2214C6.29601 37.4677 6.23812 37.7083 6.12373 37.9377C6.00287 38.1789 6.04439 38.4694 6.22644 38.6677C6.59246 39.0655 6.79394 39.568 6.79394 40.0821C6.79394 40.3986 6.71852 40.7088 6.56897 41.0032C6.44811 41.2418 6.48645 41.5303 6.66457 41.7299C6.73084 41.8034 6.79267 41.8807 6.8498 41.9593C7.16896 42.402 7.33794 42.9168 7.33794 43.4485C7.33794 44.9461 6.00084 46.1642 4.35828 46.1642C2.71572 46.1642 1.38065 44.9456 1.38065 43.4479ZM15.8702 50.6592H11.5417V42.8311C11.5417 41.6377 12.5122 40.6665 13.7056 40.6665C14.8989 40.6665 15.8702 41.6376 15.8702 42.8311V50.6592ZM23.2075 50.6599H17.1708V42.8311C17.1708 40.9207 15.6166 39.3665 13.7062 39.3665C11.7964 39.3665 10.2423 40.9207 10.2423 42.8311V50.6592H5.03051L5.0234 47.4104C7.06905 47.1102 8.64013 45.45 8.64013 43.4479C8.64013 42.6412 8.38597 41.8631 7.90429 41.1962C7.90366 41.1949 7.90239 41.1936 7.90176 41.1922C8.03049 40.8335 8.09549 40.4616 8.09549 40.0814C8.09549 39.3787 7.86989 38.6949 7.45398 38.117C7.54894 37.827 7.5977 37.5274 7.5977 37.2213C7.5977 37.1707 7.59643 37.1199 7.59376 37.0659C7.51771 35.6528 6.43021 34.5081 5.01058 34.2358V9.58472H23.135V10.5091H22.2483C21.8889 10.5091 21.5983 10.7997 21.5983 11.1591V14.4169C21.5983 14.7763 21.8889 15.0669 22.2483 15.0669H23.2077V50.6599H23.2075ZM38.9334 50.6592H35.4356V42.0569H38.9334V50.6592ZM43.7311 50.6592H40.2333V42.0569H43.7311V50.6592ZM47.5012 50.6592H45.0311V41.4069C45.0311 41.0475 44.7405 40.7569 44.3811 40.7569H34.7863C34.4268 40.7569 34.1362 41.0475 34.1362 41.4069V50.6592H24.5069V15.0663H47.5012V50.6592Z" fill="white"/>
</g>
</g>
</g>
<defs>
<clipPath id="clip0_126_1187">
<rect width="52" height="52" fill="white"/>
</clipPath>
</defs>
</svg>
