<svg width="52" height="52" viewBox="0 0 52 52" fill="none" xmlns="http://www.w3.org/2000/svg">
<g id="fi_11059090">
<g id="Group">
<path id="Vector" d="M21.9375 22.75H30.0625V26H21.9375V22.75Z" stroke="white" stroke-width="1.625" stroke-linecap="round" stroke-linejoin="round"/>
<path id="Vector_2" d="M26 22.75V26" stroke="white" stroke-width="1.625" stroke-linecap="round" stroke-linejoin="round"/>
<path id="Vector_3" d="M21.9375 29.25H30.0625V32.5H21.9375V29.25Z" stroke="white" stroke-width="1.625" stroke-linecap="round" stroke-linejoin="round"/>
<path id="Vector_4" d="M26 29.25V32.5" stroke="white" stroke-width="1.625" stroke-linecap="round" stroke-linejoin="round"/>
<path id="Vector_5" d="M26 18.6875C26.8975 18.6875 27.625 17.96 27.625 17.0625C27.625 16.165 26.8975 15.4375 26 15.4375C25.1025 15.4375 24.375 16.165 24.375 17.0625C24.375 17.96 25.1025 18.6875 26 18.6875Z" stroke="white" stroke-width="1.625" stroke-linecap="round" stroke-linejoin="round"/>
<path id="Vector_6" d="M17.875 42.25V17.875L26 9.75L34.125 17.875V42.25" stroke="white" stroke-width="1.625" stroke-linecap="round" stroke-linejoin="round"/>
<path id="Vector_7" d="M21.125 42.25V35.75H24.375V42.25" stroke="white" stroke-width="1.625" stroke-linecap="round" stroke-linejoin="round"/>
<path id="Vector_8" d="M27.625 35.75H30.875V39H27.625V35.75Z" stroke="white" stroke-width="1.625" stroke-linecap="round" stroke-linejoin="round"/>
<path id="Vector_9" d="M5.6875 22.75H13.8125V26H5.6875V22.75Z" stroke="white" stroke-width="1.625" stroke-linecap="round" stroke-linejoin="round"/>
<path id="Vector_10" d="M9.75 22.75V26" stroke="white" stroke-width="1.625" stroke-linecap="round" stroke-linejoin="round"/>
<path id="Vector_11" d="M5.6875 29.25H13.8125V32.5H5.6875V29.25Z" stroke="white" stroke-width="1.625" stroke-linecap="round" stroke-linejoin="round"/>
<path id="Vector_12" d="M9.75 29.25V32.5" stroke="white" stroke-width="1.625" stroke-linecap="round" stroke-linejoin="round"/>
<path id="Vector_13" d="M9.75 18.6875C10.6475 18.6875 11.375 17.96 11.375 17.0625C11.375 16.165 10.6475 15.4375 9.75 15.4375C8.85254 15.4375 8.125 16.165 8.125 17.0625C8.125 17.96 8.85254 18.6875 9.75 18.6875Z" stroke="white" stroke-width="1.625" stroke-linecap="round" stroke-linejoin="round"/>
<path id="Vector_14" d="M17.875 17.875L9.75 9.75L1.625 17.875V42.25H50.375V17.875L42.25 9.75L34.125 17.875" stroke="white" stroke-width="1.625" stroke-linecap="round" stroke-linejoin="round"/>
<path id="Vector_15" d="M4.875 42.25V35.75H8.125V42.25" stroke="white" stroke-width="1.625" stroke-linecap="round" stroke-linejoin="round"/>
<path id="Vector_16" d="M11.375 35.75H14.625V39H11.375V35.75Z" stroke="white" stroke-width="1.625" stroke-linecap="round" stroke-linejoin="round"/>
<path id="Vector_17" d="M38.1875 22.75H46.3125V26H38.1875V22.75Z" stroke="white" stroke-width="1.625" stroke-linecap="round" stroke-linejoin="round"/>
<path id="Vector_18" d="M42.25 22.75V26" stroke="white" stroke-width="1.625" stroke-linecap="round" stroke-linejoin="round"/>
<path id="Vector_19" d="M38.1875 29.25H46.3125V32.5H38.1875V29.25Z" stroke="white" stroke-width="1.625" stroke-linecap="round" stroke-linejoin="round"/>
<path id="Vector_20" d="M42.25 29.25V32.5" stroke="white" stroke-width="1.625" stroke-linecap="round" stroke-linejoin="round"/>
<path id="Vector_21" d="M42.25 18.6875C43.1475 18.6875 43.875 17.96 43.875 17.0625C43.875 16.165 43.1475 15.4375 42.25 15.4375C41.3525 15.4375 40.625 16.165 40.625 17.0625C40.625 17.96 41.3525 18.6875 42.25 18.6875Z" stroke="white" stroke-width="1.625" stroke-linecap="round" stroke-linejoin="round"/>
<path id="Vector_22" d="M37.375 42.25V35.75H40.625V42.25" stroke="white" stroke-width="1.625" stroke-linecap="round" stroke-linejoin="round"/>
<path id="Vector_23" d="M43.875 35.75H47.125V39H43.875V35.75Z" stroke="white" stroke-width="1.625" stroke-linecap="round" stroke-linejoin="round"/>
</g>
</g>
</svg>
