<svg width="52" height="52" viewBox="0 0 52 52" fill="none" xmlns="http://www.w3.org/2000/svg">
<g id="fi_9029799">
<g id="Layer 2">
<path id="Vector" d="M39.0912 50.9843H12.9092C12.7476 50.9843 12.5926 50.9201 12.4783 50.8058C12.364 50.6915 12.2998 50.5365 12.2998 50.3749V6.03516C12.2998 5.87354 12.364 5.71854 12.4783 5.60426C12.5926 5.48998 12.7476 5.42578 12.9092 5.42578H39.0912C39.2528 5.42578 39.4078 5.48998 39.5221 5.60426C39.6364 5.71854 39.7006 5.87354 39.7006 6.03516V50.3749C39.7006 50.5365 39.6364 50.6915 39.5221 50.8058C39.4078 50.9201 39.2528 50.9843 39.0912 50.9843ZM13.5186 49.7655H38.4818V6.64453H13.5186V49.7655Z" fill="white"/>
<path id="Vector_2" d="M28.1255 50.9845H23.8745C23.7129 50.9845 23.5579 50.9203 23.4436 50.806C23.3293 50.6917 23.2651 50.5367 23.2651 50.3751V42.4224C23.2651 42.2607 23.3293 42.1057 23.4436 41.9915C23.5579 41.8772 23.7129 41.813 23.8745 41.813H28.1255C28.2871 41.813 28.4421 41.8772 28.5564 41.9915C28.6707 42.1057 28.7349 42.2607 28.7349 42.4224V50.3751C28.7349 50.5367 28.6707 50.6917 28.5564 50.806C28.4421 50.9203 28.2871 50.9845 28.1255 50.9845ZM24.4839 49.7657H27.5161V43.0317H24.4839V49.7657Z" fill="white"/>
<path id="Vector_3" d="M20.6507 39.6953H16.6045C16.4429 39.6953 16.2879 39.6311 16.1736 39.5169C16.0593 39.4026 15.9951 39.2476 15.9951 39.086V35.0381C15.9951 34.8765 16.0593 34.7215 16.1736 34.6072C16.2879 34.4929 16.4429 34.4287 16.6045 34.4287H20.6507C20.7308 34.4285 20.8102 34.4441 20.8842 34.4747C20.9582 34.5052 21.0255 34.5501 21.0821 34.6067C21.1387 34.6633 21.1836 34.7306 21.2142 34.8046C21.2447 34.8787 21.2603 34.958 21.2601 35.0381V39.086C21.2603 39.166 21.2447 39.2454 21.2142 39.3194C21.1836 39.3934 21.1387 39.4607 21.0821 39.5173C21.0255 39.574 20.9582 39.6188 20.8842 39.6494C20.8102 39.6799 20.7308 39.6956 20.6507 39.6953ZM17.2139 38.4766H20.0414V35.6475H17.2139V38.4766Z" fill="white"/>
<path id="Vector_4" d="M28.0233 39.6953H23.9771C23.8154 39.6953 23.6604 39.6311 23.5462 39.5169C23.4319 39.4026 23.3677 39.2476 23.3677 39.086V35.0381C23.3677 34.8765 23.4319 34.7215 23.5462 34.6072C23.6604 34.4929 23.8154 34.4287 23.9771 34.4287H28.0233C28.1849 34.4287 28.3399 34.4929 28.4542 34.6072C28.5685 34.7215 28.6327 34.8765 28.6327 35.0381V39.086C28.6327 39.2476 28.5685 39.4026 28.4542 39.5169C28.3399 39.6311 28.1849 39.6953 28.0233 39.6953ZM24.5864 38.4766H27.4139V35.6475H24.5864V38.4766Z" fill="white"/>
<path id="Vector_5" d="M35.3959 39.6953H31.3496C31.188 39.6953 31.033 39.6311 30.9187 39.5169C30.8044 39.4026 30.7402 39.2476 30.7402 39.086V35.0381C30.7402 34.8765 30.8044 34.7215 30.9187 34.6072C31.033 34.4929 31.188 34.4287 31.3496 34.4287H35.3959C35.5575 34.4287 35.7125 34.4929 35.8268 34.6072C35.941 34.7215 36.0052 34.8765 36.0052 35.0381V39.086C36.0052 39.2476 35.941 39.4026 35.8268 39.5169C35.7125 39.6311 35.5575 39.6953 35.3959 39.6953ZM31.959 38.4766H34.7865V35.6475H31.959V38.4766Z" fill="white"/>
<path id="Vector_6" d="M20.6507 47.9227H16.6045C16.4429 47.9227 16.2879 47.8585 16.1736 47.7442C16.0593 47.63 15.9951 47.475 15.9951 47.3133V43.2671C15.9951 43.1055 16.0593 42.9505 16.1736 42.8362C16.2879 42.7219 16.4429 42.6577 16.6045 42.6577H20.6507C20.7308 42.6575 20.8102 42.6731 20.8842 42.7037C20.9582 42.7342 21.0255 42.7791 21.0821 42.8357C21.1387 42.8923 21.1836 42.9596 21.2142 43.0336C21.2447 43.1077 21.2603 43.187 21.2601 43.2671V47.3133C21.2603 47.3934 21.2447 47.4728 21.2142 47.5468C21.1836 47.6208 21.1387 47.6881 21.0821 47.7447C21.0255 47.8013 20.9582 47.8462 20.8842 47.8768C20.8102 47.9073 20.7308 47.9229 20.6507 47.9227ZM17.2139 46.704H20.0414V43.8748H17.2139V46.704Z" fill="white"/>
<path id="Vector_7" d="M35.3959 47.9227H31.3496C31.188 47.9227 31.033 47.8585 30.9187 47.7442C30.8044 47.63 30.7402 47.475 30.7402 47.3133V43.2671C30.7402 43.1055 30.8044 42.9505 30.9187 42.8362C31.033 42.7219 31.188 42.6577 31.3496 42.6577H35.3959C35.5575 42.6577 35.7125 42.7219 35.8268 42.8362C35.941 42.9505 36.0052 43.1055 36.0052 43.2671V47.3133C36.0052 47.475 35.941 47.63 35.8268 47.7442C35.7125 47.8585 35.5575 47.9227 35.3959 47.9227ZM31.959 46.704H34.7865V43.8748H31.959V46.704Z" fill="white"/>
<path id="Vector_8" d="M20.6507 31.4665H16.6045C16.4429 31.4665 16.2879 31.4023 16.1736 31.288C16.0593 31.1737 15.9951 31.0187 15.9951 30.8571V26.8125C15.9951 26.6509 16.0593 26.4959 16.1736 26.3816C16.2879 26.2673 16.4429 26.2031 16.6045 26.2031H20.6507C20.7308 26.2029 20.8102 26.2185 20.8842 26.2491C20.9582 26.2796 21.0255 26.3245 21.0821 26.3811C21.1387 26.4378 21.1836 26.505 21.2142 26.5791C21.2447 26.6531 21.2603 26.7324 21.2601 26.8125V30.8588C21.2601 30.9387 21.2443 31.0179 21.2137 31.0917C21.1831 31.1655 21.1381 31.2326 21.0815 31.2891C21.0249 31.3455 20.9577 31.3903 20.8838 31.4207C20.8099 31.4512 20.7307 31.4667 20.6507 31.4665ZM17.2139 30.2478H20.0414V27.4203H17.2139V30.2478Z" fill="white"/>
<path id="Vector_9" d="M28.0233 31.4665H23.9771C23.8154 31.4665 23.6604 31.4023 23.5462 31.288C23.4319 31.1737 23.3677 31.0187 23.3677 30.8571V26.8125C23.3677 26.6509 23.4319 26.4959 23.5462 26.3816C23.6604 26.2673 23.8154 26.2031 23.9771 26.2031H28.0233C28.1849 26.2031 28.3399 26.2673 28.4542 26.3816C28.5685 26.4959 28.6327 26.6509 28.6327 26.8125V30.8587C28.6322 31.0201 28.5679 31.1747 28.4536 31.2886C28.3394 31.4025 28.1846 31.4665 28.0233 31.4665ZM24.5864 30.2478H27.4139V27.4203H24.5864V30.2478Z" fill="white"/>
<path id="Vector_10" d="M35.3959 31.4665H31.3496C31.188 31.4665 31.033 31.4023 30.9187 31.288C30.8044 31.1737 30.7402 31.0187 30.7402 30.8571V26.8125C30.7402 26.6509 30.8044 26.4959 30.9187 26.3816C31.033 26.2673 31.188 26.2031 31.3496 26.2031H35.3959C35.5575 26.2031 35.7125 26.2673 35.8268 26.3816C35.941 26.4959 36.0052 26.6509 36.0052 26.8125V30.8587C36.0048 31.0201 35.9404 31.1747 35.8262 31.2886C35.7119 31.4025 35.5572 31.4665 35.3959 31.4665ZM31.959 30.2478H34.7865V27.4203H31.959V30.2478Z" fill="white"/>
<path id="Vector_11" d="M20.6507 23.2377H16.6045C16.4429 23.2377 16.2879 23.1735 16.1736 23.0592C16.0593 22.9449 15.9951 22.7899 15.9951 22.6283V18.582C15.9951 18.4204 16.0593 18.2654 16.1736 18.1511C16.2879 18.0369 16.4429 17.9727 16.6045 17.9727H20.6507C20.7308 17.9724 20.8102 17.9881 20.8842 18.0186C20.9582 18.0492 21.0255 18.094 21.0821 18.1507C21.1387 18.2073 21.1836 18.2746 21.2142 18.3486C21.2447 18.4226 21.2603 18.5019 21.2601 18.582V22.6283C21.2603 22.7084 21.2447 22.7877 21.2142 22.8617C21.1836 22.9358 21.1387 23.003 21.0821 23.0597C21.0255 23.1163 20.9582 23.1612 20.8842 23.1917C20.8102 23.2223 20.7308 23.2379 20.6507 23.2377ZM17.2139 22.0189H20.0414V19.1914H17.2139V22.0189Z" fill="white"/>
<path id="Vector_12" d="M28.0233 23.2377H23.9771C23.8154 23.2377 23.6604 23.1735 23.5462 23.0592C23.4319 22.9449 23.3677 22.7899 23.3677 22.6283V18.582C23.3677 18.4204 23.4319 18.2654 23.5462 18.1511C23.6604 18.0369 23.8154 17.9727 23.9771 17.9727H28.0233C28.1849 17.9727 28.3399 18.0369 28.4542 18.1511C28.5685 18.2654 28.6327 18.4204 28.6327 18.582V22.6283C28.6327 22.7899 28.5685 22.9449 28.4542 23.0592C28.3399 23.1735 28.1849 23.2377 28.0233 23.2377ZM24.5864 22.0189H27.4139V19.1914H24.5864V22.0189Z" fill="white"/>
<path id="Vector_13" d="M35.3959 23.2377H31.3496C31.188 23.2377 31.033 23.1735 30.9187 23.0592C30.8044 22.9449 30.7402 22.7899 30.7402 22.6283V18.582C30.7402 18.4204 30.8044 18.2654 30.9187 18.1511C31.033 18.0369 31.188 17.9727 31.3496 17.9727H35.3959C35.5575 17.9727 35.7125 18.0369 35.8268 18.1511C35.941 18.2654 36.0052 18.4204 36.0052 18.582V22.6283C36.0052 22.7899 35.941 22.9449 35.8268 23.0592C35.7125 23.1735 35.5575 23.2377 35.3959 23.2377ZM31.959 22.0189H34.7865V19.1914H31.959V22.0189Z" fill="white"/>
<path id="Vector_14" d="M20.6507 15.0101H16.6045C16.4429 15.0101 16.2879 14.9459 16.1736 14.8316C16.0593 14.7174 15.9951 14.5624 15.9951 14.4008V10.3545C15.9964 10.1937 16.0612 10.04 16.1753 9.92676C16.2895 9.81353 16.4437 9.75 16.6045 9.75H20.6507C20.7308 9.74979 20.8102 9.7654 20.8842 9.79595C20.9582 9.8265 21.0255 9.87138 21.0821 9.92801C21.1387 9.98463 21.1836 10.0519 21.2142 10.1259C21.2447 10.2 21.2603 10.2793 21.2601 10.3594V14.4056C21.2593 14.5665 21.1946 14.7205 21.0804 14.8338C20.9662 14.9472 20.8116 15.0106 20.6507 15.0101ZM17.2139 13.7914H20.0414V10.9639H17.2139V13.7914Z" fill="white"/>
<path id="Vector_15" d="M28.0233 15.0101H23.9771C23.8154 15.0101 23.6604 14.9459 23.5462 14.8316C23.4319 14.7174 23.3677 14.5624 23.3677 14.4008V10.3545C23.369 10.1937 23.4337 10.04 23.5479 9.92675C23.662 9.81353 23.8163 9.74999 23.9771 9.75H28.0233C28.1849 9.75 28.3399 9.8142 28.4542 9.92848C28.5685 10.0428 28.6327 10.1978 28.6327 10.3594V14.4056C28.6314 14.5664 28.5666 14.7201 28.4525 14.8334C28.3383 14.9466 28.1841 15.0101 28.0233 15.0101ZM24.5864 13.7914H27.4139V10.9639H24.5864V13.7914Z" fill="white"/>
<path id="Vector_16" d="M35.3959 15.0101H31.3496C31.188 15.0101 31.033 14.9459 30.9187 14.8316C30.8044 14.7174 30.7402 14.5624 30.7402 14.4008V10.3545C30.7415 10.1937 30.8063 10.04 30.9204 9.92675C31.0346 9.81353 31.1888 9.74999 31.3496 9.75H35.3959C35.5575 9.75 35.7125 9.8142 35.8268 9.92848C35.941 10.0428 36.0052 10.1978 36.0052 10.3594V14.4056C36.0039 14.5664 35.9392 14.7201 35.825 14.8334C35.7109 14.9466 35.5566 15.0101 35.3959 15.0101ZM31.959 13.7914H34.7865V10.9639H31.959V13.7914Z" fill="white"/>
<path id="Vector_17" d="M37.2125 6.64463H14.7875C14.6258 6.64463 14.4708 6.58042 14.3566 6.46614C14.2423 6.35186 14.1781 6.19687 14.1781 6.03525C14.1704 5.38102 14.2921 4.73173 14.5363 4.12475C14.7806 3.51777 15.1425 2.96509 15.6012 2.49854C16.0599 2.03199 16.6063 1.66078 17.2091 1.40628C17.8118 1.15177 18.4589 1.01901 19.1132 1.01562H32.8851C34.1939 1.01734 35.4485 1.53802 36.374 2.46347C37.2994 3.38891 37.8201 4.6436 37.8218 5.95238C37.8245 6.12287 37.7636 6.28825 37.6509 6.41624C37.5382 6.54423 37.3819 6.62566 37.2125 6.64463ZM15.4375 5.42588H36.5625C36.4344 4.54031 35.9918 3.73043 35.3157 3.14439C34.6395 2.55835 33.775 2.23532 32.8802 2.23438H19.1132C18.2195 2.23654 17.3563 2.56016 16.6814 3.14612C16.0066 3.73208 15.565 4.54127 15.4375 5.42588Z" fill="white"/>
</g>
</g>
</svg>
