<svg width="52" height="52" viewBox="0 0 52 52" fill="none" xmlns="http://www.w3.org/2000/svg">
<g id="fi_767033" clip-path="url(#clip0_126_1307)">
<g id="Group">
<g id="Group_2">
<path id="Vector" d="M51.35 50.7H49.7906V4.91397H50.2508C50.6096 4.91397 50.9008 4.62274 50.9008 4.26397V0.65C50.9008 0.29123 50.6096 0 50.2508 0H27.3936C27.0348 0 26.7436 0.29123 26.7436 0.65V4.26397C26.7436 4.62274 27.0348 4.91397 27.3936 4.91397H27.6496V50.7H24.3463V4.91397H24.8065C25.1653 4.91397 25.4565 4.62274 25.4565 4.26397V0.65C25.4565 0.29123 25.1653 0 24.8065 0H1.95C1.59123 0 1.3 0.29123 1.3 0.65V4.26397C1.3 4.62274 1.59123 4.91397 1.95 4.91397H2.20606V50.7H0.65C0.29123 50.7 0 50.9912 0 51.35C0 51.7088 0.29123 52 0.65 52H51.35C51.7088 52 52 51.7088 52 51.35C52 50.9912 51.7088 50.7 51.35 50.7ZM15.6331 50.7H10.9779V41.4823H15.6331V50.7ZM23.0471 50.7H16.9331V40.8323C16.9331 40.4735 16.6419 40.1823 16.2831 40.1823H10.3279C9.96912 40.1823 9.67789 40.4735 9.67789 40.8323V50.7H3.50543V4.91397H3.50606H23.0471V50.7ZM24.1573 3.61397H2.6V1.3H24.1573V3.61397ZM41.0767 50.7H36.4215V41.4823H41.0767V50.7ZM48.4906 50.7H42.3767V40.8323C42.3767 40.4735 42.0855 40.1823 41.7267 40.1823H35.7715C35.4127 40.1823 35.1215 40.4735 35.1215 40.8323V50.7H28.9498V4.91397H48.4908V50.7H48.4906ZM49.6008 3.61397H28.0436V1.3H49.6008V3.61397Z" fill="white"/>
</g>
</g>
<g id="Group_3">
<g id="Group_4">
<path id="Vector_2" d="M8.88543 27.2075H6.0333C5.67453 27.2075 5.3833 27.4987 5.3833 27.8575V32.464C5.3833 32.8228 5.67453 33.114 6.0333 33.114H8.88543C9.2442 33.114 9.53543 32.8228 9.53543 32.464V27.8575C9.53543 27.4987 9.24496 27.2075 8.88543 27.2075ZM8.23543 31.814H6.6833V28.5075H8.23543V31.814Z" fill="white"/>
</g>
</g>
<g id="Group_5">
<g id="Group_6">
<path id="Vector_3" d="M8.88543 18.2456H6.0333C5.67453 18.2456 5.3833 18.5368 5.3833 18.8956V23.5021C5.3833 23.8609 5.67453 24.1521 6.0333 24.1521H8.88543C9.2442 24.1521 9.53543 23.8609 9.53543 23.5021V18.8956C9.53543 18.5368 9.24496 18.2456 8.88543 18.2456ZM8.23543 22.8529H6.6833V19.5456H8.23543V22.8529Z" fill="white"/>
</g>
</g>
<g id="Group_7">
<g id="Group_8">
<path id="Vector_4" d="M8.88543 9.2373H6.0333C5.67453 9.2373 5.3833 9.52853 5.3833 9.8873V14.4938C5.3833 14.8526 5.67453 15.1438 6.0333 15.1438H8.88543C9.2442 15.1438 9.53543 14.8526 9.53543 14.4938V9.8873C9.53543 9.52853 9.24496 9.2373 8.88543 9.2373ZM8.23543 13.8439H6.6833V10.5373H8.23543V13.8439Z" fill="white"/>
</g>
</g>
<g id="Group_9">
<g id="Group_10">
<path id="Vector_5" d="M14.6484 27.2075H11.7962C11.4375 27.2075 11.1462 27.4987 11.1462 27.8575V32.464C11.1462 32.8234 11.4375 33.114 11.7962 33.114H14.6485C15.0073 33.114 15.2985 32.8228 15.2985 32.464V27.8575C15.2984 27.4987 15.0073 27.2075 14.6484 27.2075ZM13.9984 31.814H12.4462V28.5075H13.9985L13.9984 31.814Z" fill="white"/>
</g>
</g>
<g id="Group_11">
<g id="Group_12">
<path id="Vector_6" d="M14.6484 18.2456H11.7962C11.4375 18.2456 11.1462 18.5368 11.1462 18.8956V23.5021C11.1462 23.8615 11.4375 24.1527 11.7962 24.1527H14.6485C15.0073 24.1527 15.2985 23.8615 15.2985 23.5027V18.8955C15.2984 18.5368 15.0073 18.2456 14.6484 18.2456ZM13.9984 22.8522H12.4462V19.5457H13.9985L13.9984 22.8522Z" fill="white"/>
</g>
</g>
<g id="Group_13">
<g id="Group_14">
<path id="Vector_7" d="M14.6484 9.2373H11.7962C11.4375 9.2373 11.1462 9.52853 11.1462 9.8873V14.4938C11.1462 14.8532 11.4375 15.1438 11.7962 15.1438H14.6485C15.0073 15.1438 15.2985 14.8526 15.2985 14.4938V9.8873C15.2984 9.52853 15.0073 9.2373 14.6484 9.2373ZM13.9984 13.8439H12.4462V10.5373H13.9985L13.9984 13.8439Z" fill="white"/>
</g>
</g>
<g id="Group_15">
<g id="Group_16">
<path id="Vector_8" d="M20.4107 27.2075H17.5584C17.1997 27.2075 16.9084 27.4987 16.9084 27.8575V32.464C16.9084 32.8234 17.1997 33.114 17.5584 33.114H20.4107C20.7695 33.114 21.0607 32.8228 21.0607 32.464V27.8575C21.0607 27.4987 20.7695 27.2075 20.4107 27.2075ZM19.7607 31.814H18.2084V28.5075H19.7607V31.814Z" fill="white"/>
</g>
</g>
<g id="Group_17">
<g id="Group_18">
<path id="Vector_9" d="M20.4107 18.2456H17.5584C17.1997 18.2456 16.9084 18.5368 16.9084 18.8956V23.5021C16.9084 23.8615 17.1997 24.1527 17.5584 24.1527H20.4107C20.7695 24.1527 21.0607 23.8615 21.0607 23.5027V18.8955C21.0607 18.5368 20.7695 18.2456 20.4107 18.2456ZM19.7607 22.8522H18.2084V19.5457H19.7607V22.8522Z" fill="white"/>
</g>
</g>
<g id="Group_19">
<g id="Group_20">
<path id="Vector_10" d="M20.4107 9.2373H17.5584C17.1997 9.2373 16.9084 9.52853 16.9084 9.8873V14.4938C16.9084 14.8532 17.1997 15.1438 17.5584 15.1438H20.4107C20.7695 15.1438 21.0607 14.8526 21.0607 14.4938V9.8873C21.0607 9.52853 20.7695 9.2373 20.4107 9.2373ZM19.7607 13.8439H18.2084V10.5373H19.7607V13.8439Z" fill="white"/>
</g>
</g>
<g id="Group_21">
<g id="Group_22">
<path id="Vector_11" d="M34.3292 27.2075H31.4769C31.1181 27.2075 30.8269 27.4987 30.8269 27.8575V32.464C30.8269 32.8228 31.1181 33.114 31.4769 33.114H34.3292C34.6879 33.114 34.9792 32.8228 34.9792 32.464V27.8575C34.9792 27.4987 34.6886 27.2075 34.3292 27.2075ZM33.6792 31.814H32.1269V28.5075H33.6792V31.814Z" fill="white"/>
</g>
</g>
<g id="Group_23">
<g id="Group_24">
<path id="Vector_12" d="M34.3292 18.2456H31.4769C31.1181 18.2456 30.8269 18.5368 30.8269 18.8956V23.5021C30.8269 23.8609 31.1181 24.1521 31.4769 24.1521H34.3292C34.6879 24.1521 34.9792 23.8609 34.9792 23.5021V18.8956C34.9792 18.5368 34.6886 18.2456 34.3292 18.2456ZM33.6792 22.8529H32.1269V19.5456H33.6792V22.8529Z" fill="white"/>
</g>
</g>
<g id="Group_25">
<g id="Group_26">
<path id="Vector_13" d="M34.3292 9.2373H31.4769C31.1181 9.2373 30.8269 9.52853 30.8269 9.8873V14.4938C30.8269 14.8526 31.1181 15.1438 31.4769 15.1438H34.3292C34.6879 15.1438 34.9792 14.8526 34.9792 14.4938V9.8873C34.9792 9.52853 34.6886 9.2373 34.3292 9.2373ZM33.6792 13.8439H32.1269V10.5373H33.6792V13.8439Z" fill="white"/>
</g>
</g>
<g id="Group_27">
<g id="Group_28">
<path id="Vector_14" d="M40.0921 27.2075H37.2398C36.8811 27.2075 36.5898 27.4987 36.5898 27.8575V32.464C36.5898 32.8234 36.8811 33.114 37.2398 33.114H40.0921C40.4509 33.114 40.7421 32.8228 40.7421 32.464V27.8575C40.7421 27.4987 40.4509 27.2075 40.0921 27.2075ZM39.4421 31.814H37.8898V28.5075H39.4421V31.814Z" fill="white"/>
</g>
</g>
<g id="Group_29">
<g id="Group_30">
<path id="Vector_15" d="M40.0921 18.2456H37.2398C36.8811 18.2456 36.5898 18.5368 36.5898 18.8956V23.5021C36.5898 23.8615 36.8811 24.1527 37.2398 24.1527H40.0921C40.4509 24.1527 40.7421 23.8615 40.7421 23.5027V18.8955C40.7421 18.5368 40.4509 18.2456 40.0921 18.2456ZM39.4421 22.8522H37.8898V19.5457H39.4421V22.8522Z" fill="white"/>
</g>
</g>
<g id="Group_31">
<g id="Group_32">
<path id="Vector_16" d="M40.0921 9.2373H37.2398C36.8811 9.2373 36.5898 9.52853 36.5898 9.8873V14.4938C36.5898 14.8532 36.8811 15.1438 37.2398 15.1438H40.0921C40.4509 15.1438 40.7421 14.8526 40.7421 14.4938V9.8873C40.7421 9.52853 40.4509 9.2373 40.0921 9.2373ZM39.4421 13.8439H37.8898V10.5373H39.4421V13.8439Z" fill="white"/>
</g>
</g>
<g id="Group_33">
<g id="Group_34">
<path id="Vector_17" d="M45.8543 27.2075H43.0021C42.6433 27.2075 42.3521 27.4987 42.3521 27.8575V32.464C42.3521 32.8234 42.6433 33.114 43.0021 33.114H45.8543C46.2131 33.114 46.5043 32.8228 46.5043 32.464V27.8575C46.5043 27.4987 46.2132 27.2075 45.8543 27.2075ZM45.2043 31.814H43.652V28.5075H45.2043V31.814Z" fill="white"/>
</g>
</g>
<g id="Group_35">
<g id="Group_36">
<path id="Vector_18" d="M45.8543 18.2456H43.0021C42.6433 18.2456 42.3521 18.5368 42.3521 18.8956V23.5021C42.3521 23.8615 42.6433 24.1527 43.0021 24.1527H45.8543C46.2131 24.1527 46.5043 23.8615 46.5043 23.5027V18.8955C46.5043 18.5368 46.2132 18.2456 45.8543 18.2456ZM45.2043 22.8522H43.652V19.5457H45.2043V22.8522Z" fill="white"/>
</g>
</g>
<g id="Group_37">
<g id="Group_38">
<path id="Vector_19" d="M45.8543 9.2373H43.0021C42.6433 9.2373 42.3521 9.52853 42.3521 9.8873V14.4938C42.3521 14.8532 42.6433 15.1438 43.0021 15.1438H45.8543C46.2131 15.1438 46.5043 14.8526 46.5043 14.4938V9.8873C46.5043 9.52853 46.2132 9.2373 45.8543 9.2373ZM45.2043 13.8439H43.652V10.5373H45.2043V13.8439Z" fill="white"/>
</g>
</g>
</g>
<defs>
<clipPath id="clip0_126_1307">
<rect width="52" height="52" fill="white"/>
</clipPath>
</defs>
</svg>
