<svg width="26" height="26" viewBox="0 0 26 26" fill="none" xmlns="http://www.w3.org/2000/svg">
<path d="M13 2.375C16.4375 2.375 16.9062 2.375 18.3125 2.375C19.5625 2.375 20.1875 2.6875 20.6562 2.84375C21.2812 3.15625 21.75 3.3125 22.2188 3.78125C22.6875 4.25 23 4.71875 23.1562 5.34375C23.3125 5.8125 23.4687 6.4375 23.625 7.6875C23.625 9.09375 23.625 9.40625 23.625 13C23.625 16.5938 23.625 16.9062 23.625 18.3125C23.625 19.5625 23.3125 20.1875 23.1562 20.6562C22.8438 21.2812 22.6875 21.75 22.2188 22.2188C21.75 22.6875 21.2812 23 20.6562 23.1562C20.1875 23.3125 19.5625 23.4687 18.3125 23.625C16.9062 23.625 16.5938 23.625 13 23.625C9.40625 23.625 9.09375 23.625 7.6875 23.625C6.4375 23.625 5.8125 23.3125 5.34375 23.1562C4.71875 22.8438 4.25 22.6875 3.78125 22.2188C3.3125 21.75 3 21.2812 2.84375 20.6562C2.6875 20.1875 2.53125 19.5625 2.375 18.3125C2.375 16.9062 2.375 16.5938 2.375 13C2.375 9.40625 2.375 9.09375 2.375 7.6875C2.375 6.4375 2.6875 5.8125 2.84375 5.34375C3.15625 4.71875 3.3125 4.25 3.78125 3.78125C4.25 3.3125 4.71875 3 5.34375 2.84375C5.8125 2.6875 6.4375 2.53125 7.6875 2.375C9.09375 2.375 9.5625 2.375 13 2.375ZM13 0.03125C9.40625 0.03125 9.09375 0.03125 7.6875 0.03125C6.28125 0.03125 5.34375 0.343751 4.5625 0.656251C3.78125 0.968751 3 1.4375 2.21875 2.21875C1.4375 3 1.125 3.625 0.656251 4.5625C0.343751 5.34375 0.1875 6.28125 0.03125 7.6875C0.03125 9.09375 0.03125 9.5625 0.03125 13C0.03125 16.5938 0.03125 16.9062 0.03125 18.3125C0.03125 19.7188 0.343751 20.6562 0.656251 21.4375C0.968751 22.2188 1.4375 23 2.21875 23.7812C3 24.5625 3.625 24.875 4.5625 25.3438C5.34375 25.6563 6.28125 25.8125 7.6875 25.9687C9.09375 25.9687 9.5625 25.9687 13 25.9687C16.4375 25.9687 16.9062 25.9687 18.3125 25.9687C19.7188 25.9687 20.6562 25.6563 21.4375 25.3438C22.2188 25.0312 23 24.5625 23.7812 23.7812C24.5625 23 24.875 22.375 25.3438 21.4375C25.6563 20.6562 25.8125 19.7188 25.9687 18.3125C25.9687 16.9062 25.9687 16.4375 25.9687 13C25.9687 9.5625 25.9687 9.09375 25.9687 7.6875C25.9687 6.28125 25.6563 5.34375 25.3438 4.5625C25.0312 3.78125 24.5625 3 23.7812 2.21875C23 1.4375 22.375 1.125 21.4375 0.656251C20.6562 0.343751 19.7188 0.1875 18.3125 0.03125C16.9062 0.03125 16.5938 0.03125 13 0.03125Z" fill="white"/>
<path d="M13 6.28125C9.25 6.28125 6.28125 9.25 6.28125 13C6.28125 16.75 9.25 19.7188 13 19.7188C16.75 19.7188 19.7188 16.75 19.7188 13C19.7188 9.25 16.75 6.28125 13 6.28125ZM13 17.375C10.6562 17.375 8.625 15.5 8.625 13C8.625 10.6562 10.5 8.625 13 8.625C15.3438 8.625 17.375 10.5 17.375 13C17.375 15.3438 15.3438 17.375 13 17.375Z" fill="white"/>
<path d="M19.875 7.6875C20.7379 7.6875 21.4375 6.98795 21.4375 6.125C21.4375 5.26206 20.7379 4.5625 19.875 4.5625C19.0121 4.5625 18.3125 5.26206 18.3125 6.125C18.3125 6.98795 19.0121 7.6875 19.875 7.6875Z" fill="white"/>
</svg>
