<svg width="321" height="52" viewBox="0 0 321 52" fill="none" xmlns="http://www.w3.org/2000/svg">
<mask id="mask0_126_1579" style="mask-type:alpha" maskUnits="userSpaceOnUse" x="0" y="2" width="50" height="50">
<rect x="0.5" y="2.5" width="43.2149" height="43.2149" stroke="#1E1E1E"/>
<rect x="6.2851" y="8.28516" width="43.2149" height="43.2149" stroke="#1E1E1E"/>
<path d="M11.8567 39.4728L13.6567 38.7528L24.1327 13.3728H24.2047L35.4007 38.7528L37.1647 39.4728V39.6528H28.6687V39.4728L31.2607 38.7528L27.1207 29.2128H18.1207C16.9207 32.3088 16.3207 34.6008 16.3207 36.0888C16.3207 37.0968 16.5727 37.8408 17.0767 38.3208C17.6047 38.7768 18.4327 39.1248 19.5607 39.3648L20.1727 39.4728V39.6528H11.8567V39.4728ZM26.9407 28.7808L22.4767 18.4488L18.7327 27.6648L18.3007 28.7808H26.9407Z" fill="#1E1E1E"/>
</mask>
<g mask="url(#mask0_126_1579)">
<rect x="-9" y="-10" width="74" height="73" fill="url(#paint0_linear_126_1579)"/>
</g>
<path d="M73.684 42.836L73.756 46.88C73.756 46.952 73.708 47 73.636 47H72.676C72.604 47 72.556 46.952 72.556 46.88L72.628 42.836L72.568 39.464H70.264C70.192 39.464 70.144 39.416 70.144 39.344V38.72C70.144 38.648 70.192 38.6 70.264 38.6H76.048C76.12 38.6 76.168 38.648 76.168 38.72V39.344C76.168 39.416 76.12 39.464 76.048 39.464H73.744L73.684 42.836ZM86.1444 42.068L86.1084 38.72C86.1084 38.648 86.1564 38.6 86.2284 38.6H87.1524C87.2244 38.6 87.2724 38.648 87.2724 38.72L87.2244 42.848L87.2724 46.88C87.2724 46.952 87.2244 47 87.1524 47H86.2284C86.1564 47 86.1084 46.952 86.1084 46.88L86.1564 42.92H81.6684L81.7284 46.88C81.7284 46.952 81.6804 47 81.6084 47H80.6724C80.6004 47 80.5524 46.952 80.5524 46.88L80.6124 42.848L80.5524 38.72C80.5524 38.648 80.6004 38.6 80.6724 38.6H81.6084C81.6804 38.6 81.7284 38.648 81.7284 38.72L81.6804 42.068H86.1444ZM97.4363 46.148C97.5083 46.148 97.5563 46.196 97.5563 46.268V46.88C97.5563 46.952 97.5083 47 97.4363 47H92.2763C92.2043 47 92.1563 46.952 92.1563 46.88L92.2163 42.656L92.1563 38.72C92.1563 38.648 92.2043 38.6 92.2763 38.6H97.3403C97.4123 38.6 97.4603 38.648 97.4603 38.72V39.332C97.4603 39.404 97.4123 39.452 97.3403 39.452H93.3203L93.2723 42.092H97.0523C97.1243 42.092 97.1723 42.14 97.1723 42.212V42.824C97.1723 42.896 97.1243 42.944 97.0523 42.944H93.2723L93.3203 46.148H97.4363ZM111.559 47.156C109.099 47.156 107.647 45.512 107.647 42.788C107.647 40.136 109.147 38.444 111.559 38.444C113.227 38.444 114.655 39.2 115.063 41.36C115.075 41.444 115.039 41.492 114.955 41.492H114.091C114.019 41.492 113.983 41.456 113.959 41.384C113.695 39.956 112.771 39.32 111.547 39.32C109.795 39.32 108.799 40.676 108.799 42.788C108.799 45.092 109.831 46.28 111.535 46.28C112.927 46.28 113.827 45.5 114.007 44.048C114.019 43.964 114.055 43.928 114.127 43.928H115.015C115.087 43.928 115.135 43.976 115.123 44.072C114.799 46.172 113.467 47.156 111.559 47.156ZM123.435 47.156C121.011 47.156 119.427 45.428 119.427 42.812C119.427 40.124 121.011 38.444 123.435 38.444C125.859 38.444 127.455 40.112 127.455 42.812C127.455 45.44 125.847 47.156 123.435 47.156ZM123.435 46.28C125.223 46.28 126.291 44.972 126.291 42.812C126.291 40.652 125.223 39.32 123.435 39.32C121.647 39.32 120.579 40.64 120.579 42.812C120.579 44.96 121.671 46.28 123.435 46.28ZM133.124 43.508L133.136 46.88C133.136 46.952 133.088 47 133.016 47H132.2C132.128 47 132.08 46.952 132.08 46.88L132.14 42.884L132.092 38.72C132.092 38.648 132.14 38.6 132.212 38.6H133.52C133.58 38.6 133.628 38.624 133.652 38.696L136.316 45.584L138.92 38.696C138.944 38.624 138.992 38.6 139.052 38.6H140.276C140.348 38.6 140.396 38.648 140.396 38.72L140.348 42.884L140.408 46.88C140.408 46.952 140.36 47 140.288 47H139.388C139.316 47 139.268 46.952 139.268 46.88L139.28 43.508L139.316 40.1L136.736 46.904C136.712 46.976 136.664 47 136.604 47H135.896C135.836 47 135.788 46.976 135.764 46.904L133.076 39.992L133.124 43.508ZM145.277 38.72C145.277 38.648 145.325 38.6 145.397 38.6H148.145C149.981 38.6 151.133 39.464 151.133 41.144C151.133 42.896 149.945 43.76 148.157 43.76H146.405L146.441 46.88C146.441 46.952 146.393 47 146.321 47H145.397C145.325 47 145.277 46.952 145.277 46.88L145.337 42.692L145.277 38.72ZM146.393 42.74V42.92H148.229C149.297 42.92 150.029 42.44 150.029 41.168C150.029 39.992 149.357 39.44 148.181 39.44H146.429L146.393 42.74ZM158.306 38.6C158.366 38.6 158.426 38.624 158.45 38.696L161.354 46.868C161.378 46.952 161.342 47 161.258 47H160.334C160.274 47 160.214 46.964 160.19 46.904L159.35 44.456H155.93L155.114 46.904C155.09 46.964 155.03 47 154.97 47H154.082C153.998 47 153.962 46.952 153.986 46.868L156.902 38.696C156.926 38.624 156.986 38.6 157.046 38.6H158.306ZM159.05 43.556L157.622 39.392L156.23 43.556H159.05ZM166.741 43.28L166.753 46.88C166.753 46.952 166.705 47 166.633 47H165.793C165.721 47 165.673 46.952 165.673 46.88L165.733 42.728L165.685 38.72C165.685 38.648 165.733 38.6 165.805 38.6H166.909C166.969 38.6 167.017 38.636 167.053 38.684L171.433 45.512L171.409 42.38L171.397 38.72C171.397 38.648 171.445 38.6 171.517 38.6H172.357C172.429 38.6 172.477 38.648 172.477 38.72L172.429 42.728L172.465 46.88C172.465 46.952 172.417 47 172.345 47H171.193C171.133 47 171.085 46.964 171.049 46.916L166.705 40.172L166.741 43.28ZM179.639 47C179.567 47 179.519 46.952 179.519 46.88L179.567 44.048L176.819 38.744C176.783 38.66 176.819 38.6 176.903 38.6H177.923C177.983 38.6 178.043 38.624 178.067 38.684L180.155 43.04L182.255 38.684C182.279 38.624 182.339 38.6 182.399 38.6H183.323C183.407 38.6 183.443 38.66 183.407 38.744L180.635 44.072L180.683 46.88C180.683 46.952 180.635 47 180.563 47H179.639ZM195.523 47C195.451 47 195.403 46.952 195.403 46.88L195.451 44.048L192.703 38.744C192.667 38.66 192.703 38.6 192.787 38.6H193.807C193.867 38.6 193.927 38.624 193.951 38.684L196.039 43.04L198.139 38.684C198.163 38.624 198.223 38.6 198.283 38.6H199.207C199.291 38.6 199.327 38.66 199.291 38.744L196.519 44.072L196.567 46.88C196.567 46.952 196.519 47 196.447 47H195.523ZM206.739 47.156C204.315 47.156 202.731 45.428 202.731 42.812C202.731 40.124 204.315 38.444 206.739 38.444C209.163 38.444 210.759 40.112 210.759 42.812C210.759 45.44 209.151 47.156 206.739 47.156ZM206.739 46.28C208.527 46.28 209.595 44.972 209.595 42.812C209.595 40.652 208.527 39.32 206.739 39.32C204.951 39.32 203.883 40.64 203.883 42.812C203.883 44.96 204.975 46.28 206.739 46.28ZM218.492 47.156C216.416 47.156 215.36 45.932 215.372 43.82L215.384 41.168L215.336 38.72C215.336 38.648 215.384 38.6 215.456 38.6H216.404C216.476 38.6 216.524 38.648 216.524 38.72L216.488 41.144L216.5 43.82C216.5 45.272 217.064 46.256 218.492 46.256C219.956 46.256 220.544 45.272 220.544 43.82V41.156L220.508 38.72C220.508 38.648 220.556 38.6 220.628 38.6H221.492C221.564 38.6 221.612 38.648 221.612 38.72L221.576 41.168V43.82C221.576 45.932 220.568 47.156 218.492 47.156ZM235.806 47.156C233.346 47.156 231.894 45.512 231.894 42.788C231.894 40.136 233.394 38.444 235.806 38.444C237.474 38.444 238.902 39.2 239.31 41.36C239.322 41.444 239.286 41.492 239.202 41.492H238.338C238.266 41.492 238.23 41.456 238.206 41.384C237.942 39.956 237.018 39.32 235.794 39.32C234.042 39.32 233.046 40.676 233.046 42.788C233.046 45.092 234.078 46.28 235.782 46.28C237.174 46.28 238.074 45.5 238.254 44.048C238.266 43.964 238.302 43.928 238.374 43.928H239.262C239.334 43.928 239.382 43.976 239.37 44.072C239.046 46.172 237.714 47.156 235.806 47.156ZM247.343 38.6C247.403 38.6 247.463 38.624 247.487 38.696L250.391 46.868C250.415 46.952 250.379 47 250.295 47H249.371C249.311 47 249.251 46.964 249.227 46.904L248.387 44.456H244.967L244.151 46.904C244.127 46.964 244.067 47 244.007 47H243.119C243.035 47 242.999 46.952 243.023 46.868L245.939 38.696C245.963 38.624 246.023 38.6 246.083 38.6H247.343ZM248.087 43.556L246.659 39.392L245.267 43.556H248.087ZM255.777 43.28L255.789 46.88C255.789 46.952 255.741 47 255.669 47H254.829C254.757 47 254.709 46.952 254.709 46.88L254.769 42.728L254.721 38.72C254.721 38.648 254.769 38.6 254.841 38.6H255.945C256.005 38.6 256.053 38.636 256.089 38.684L260.469 45.512L260.445 42.38L260.433 38.72C260.433 38.648 260.481 38.6 260.553 38.6H261.393C261.465 38.6 261.513 38.648 261.513 38.72L261.465 42.728L261.501 46.88C261.501 46.952 261.453 47 261.381 47H260.229C260.169 47 260.121 46.964 260.085 46.916L255.741 40.172L255.777 43.28ZM275.082 42.836L275.154 46.88C275.154 46.952 275.106 47 275.034 47H274.074C274.002 47 273.954 46.952 273.954 46.88L274.026 42.836L273.966 39.464H271.662C271.59 39.464 271.542 39.416 271.542 39.344V38.72C271.542 38.648 271.59 38.6 271.662 38.6H277.446C277.518 38.6 277.566 38.648 277.566 38.72V39.344C277.566 39.416 277.518 39.464 277.446 39.464H275.142L275.082 42.836ZM286.043 43.448L288.215 46.856C288.263 46.94 288.239 47 288.143 47H287.099C287.039 47 286.991 46.964 286.955 46.916L286.151 45.596L284.843 43.544H283.079L283.115 46.88C283.115 46.952 283.067 47 282.995 47H282.071C281.999 47 281.951 46.952 281.951 46.88L282.011 42.668L281.951 38.72C281.951 38.648 281.999 38.6 282.071 38.6H285.011C286.919 38.6 288.095 39.428 288.095 41.06C288.095 42.392 287.303 43.196 286.043 43.448ZM285.107 39.44H283.103L283.067 42.704H285.131C286.235 42.704 286.991 42.224 286.991 41.072C286.991 39.992 286.295 39.44 285.107 39.44ZM295.889 47.156C293.813 47.156 292.757 45.932 292.769 43.82L292.781 41.168L292.733 38.72C292.733 38.648 292.781 38.6 292.853 38.6H293.801C293.873 38.6 293.921 38.648 293.921 38.72L293.885 41.144L293.897 43.82C293.897 45.272 294.461 46.256 295.889 46.256C297.353 46.256 297.941 45.272 297.941 43.82V41.156L297.905 38.72C297.905 38.648 297.953 38.6 298.025 38.6H298.889C298.961 38.6 299.009 38.648 299.009 38.72L298.973 41.168V43.82C298.973 45.932 297.965 47.156 295.889 47.156ZM307.002 47.144C304.878 47.144 303.618 46.124 303.534 44.228C303.534 44.156 303.582 44.108 303.654 44.108H304.578C304.65 44.108 304.698 44.144 304.71 44.228C304.818 45.5 305.406 46.28 307.038 46.28C308.286 46.28 309.162 45.824 309.162 44.684C309.162 42.308 303.702 44.036 303.702 40.856C303.702 39.32 304.926 38.456 306.774 38.456C308.694 38.456 309.882 39.272 310.074 40.964C310.086 41.048 310.026 41.096 309.954 41.096H309.03C308.958 41.096 308.91 41.06 308.898 40.976C308.814 39.884 308.094 39.32 306.75 39.32C305.598 39.32 304.794 39.776 304.794 40.76C304.794 42.956 310.266 41.264 310.266 44.552C310.266 46.268 308.91 47.144 307.002 47.144ZM317.514 42.836L317.586 46.88C317.586 46.952 317.538 47 317.466 47H316.506C316.434 47 316.386 46.952 316.386 46.88L316.458 42.836L316.398 39.464H314.094C314.022 39.464 313.974 39.416 313.974 39.344V38.72C313.974 38.648 314.022 38.6 314.094 38.6H319.878C319.95 38.6 319.998 38.648 319.998 38.72V39.344C319.998 39.416 319.95 39.464 319.878 39.464H317.574L317.514 42.836Z" fill="#242424"/>
<path d="M69.64 23.88L70.84 23.4L77.824 6.48H77.872L85.336 23.4L86.512 23.88V24H80.848V23.88L82.576 23.4L79.816 17.04H73.816C73.016 19.104 72.616 20.632 72.616 21.624C72.616 22.296 72.784 22.792 73.12 23.112C73.472 23.416 74.024 23.648 74.776 23.808L75.184 23.88V24H69.64V23.88ZM79.696 16.752L76.72 9.864L74.224 16.008L73.936 16.752H79.696ZM86.5084 23.88L87.9244 23.4V13.176L86.5084 12.888V12.768L90.2284 11.448H90.2524V13.8C91.2924 13.016 92.1884 12.432 92.9404 12.048C93.6924 11.648 94.3644 11.448 94.9564 11.448C95.7084 11.448 96.3484 11.664 96.8764 12.096C97.4044 12.512 97.7484 13.104 97.9084 13.872C99.0124 13.056 99.9404 12.448 100.692 12.048C101.46 11.648 102.132 11.448 102.708 11.448C103.636 11.448 104.372 11.76 104.916 12.384C105.476 12.992 105.756 13.824 105.756 14.88V23.4L107.124 23.88V24H102.036V23.88L103.428 23.4V15.264C103.428 14.464 103.22 13.856 102.804 13.44C102.404 13.008 101.876 12.792 101.22 12.792C100.724 12.792 100.228 12.904 99.7324 13.128C99.2364 13.336 98.6444 13.68 97.9564 14.16C97.9884 14.448 98.0044 14.688 98.0044 14.88V23.4L99.3484 23.88V24H94.2844V23.88L95.6764 23.4V15.264C95.6764 14.448 95.4684 13.832 95.0524 13.416C94.6524 13 94.1164 12.792 93.4444 12.792C92.9484 12.792 92.4524 12.896 91.9564 13.104C91.4764 13.312 90.9084 13.648 90.2524 14.112V23.4L91.6444 23.88V24H86.5084V23.88ZM113.672 24.36C112.52 24.36 111.504 24.112 110.624 23.616C109.744 23.104 109.056 22.392 108.56 21.48C108.064 20.552 107.816 19.48 107.816 18.264C107.816 16.936 108.088 15.752 108.632 14.712C109.192 13.672 109.944 12.872 110.888 12.312C111.848 11.736 112.912 11.448 114.08 11.448C115.36 11.448 116.392 11.768 117.176 12.408C117.976 13.032 118.416 13.84 118.496 14.832H110.336C110.224 15.328 110.168 15.92 110.168 16.608C110.168 17.872 110.368 18.968 110.768 19.896C111.184 20.808 111.768 21.512 112.52 22.008C113.272 22.488 114.144 22.728 115.136 22.728C116.208 22.728 117.04 22.472 117.632 21.96C118.224 21.448 118.688 20.632 119.024 19.512L119.168 19.56C118.816 20.984 118.224 22.144 117.392 23.04C116.576 23.92 115.336 24.36 113.672 24.36ZM116.048 14.496C115.936 13.664 115.648 13.008 115.184 12.528C114.72 12.032 114.128 11.784 113.408 11.784C112.656 11.784 112.024 12.032 111.512 12.528C111 13.024 110.632 13.712 110.408 14.592L116.048 14.496ZM119.626 23.88L121.042 23.4V13.176L119.626 12.888V12.768L123.346 11.448H123.37V13.536C124.762 12.144 125.93 11.448 126.874 11.448C127.258 11.448 127.562 11.56 127.786 11.784C128.026 12.008 128.146 12.312 128.146 12.696C128.146 13.16 127.994 13.528 127.69 13.8C126.826 13.336 126.042 13.104 125.338 13.104C124.602 13.104 123.946 13.344 123.37 13.824V23.4L125.098 23.88V24H119.626V23.88ZM128.79 23.88L130.206 23.4V13.176L128.79 12.912V12.792L132.51 11.448H132.534V23.4L133.95 23.88V24H128.79V23.88ZM131.358 10.008C130.926 10.008 130.566 9.872 130.278 9.6C130.006 9.328 129.87 8.984 129.87 8.568C129.87 8.152 130.006 7.816 130.278 7.56C130.55 7.288 130.91 7.152 131.358 7.152C131.79 7.152 132.142 7.288 132.414 7.56C132.702 7.816 132.846 8.152 132.846 8.568C132.846 8.984 132.702 9.328 132.414 9.6C132.142 9.872 131.79 10.008 131.358 10.008ZM140.765 24.36C139.613 24.36 138.597 24.112 137.717 23.616C136.853 23.12 136.173 22.416 135.677 21.504C135.197 20.576 134.957 19.496 134.957 18.264C134.957 16.936 135.229 15.752 135.773 14.712C136.317 13.672 137.069 12.872 138.029 12.312C138.989 11.736 140.069 11.448 141.269 11.448C142.069 11.448 142.781 11.568 143.405 11.808C144.029 12.048 144.509 12.376 144.845 12.792C145.197 13.192 145.373 13.624 145.373 14.088C145.373 14.488 145.261 14.824 145.037 15.096C144.829 15.368 144.597 15.528 144.341 15.576C143.829 14.328 143.269 13.384 142.661 12.744C142.069 12.104 141.365 11.784 140.549 11.784C139.541 11.784 138.749 12.224 138.173 13.104C137.597 13.984 137.309 15.16 137.309 16.632C137.309 17.88 137.509 18.968 137.909 19.896C138.325 20.808 138.893 21.512 139.613 22.008C140.349 22.488 141.197 22.728 142.157 22.728C143.181 22.728 143.981 22.472 144.557 21.96C145.133 21.432 145.589 20.616 145.925 19.512L146.069 19.56C145.717 20.984 145.141 22.144 144.341 23.04C143.541 23.92 142.349 24.36 140.765 24.36ZM149.604 24.36C148.996 24.36 148.468 24.248 148.02 24.024C147.572 23.816 147.228 23.536 146.988 23.184C146.748 22.832 146.628 22.464 146.628 22.08C146.628 21.712 146.748 21.408 146.988 21.168C147.244 20.928 147.74 20.656 148.476 20.352L153.324 18.336V14.904C153.324 13.976 153.14 13.304 152.772 12.888C152.42 12.472 151.9 12.264 151.212 12.264C150.524 12.264 149.964 12.448 149.532 12.816C149.116 13.184 148.908 13.68 148.908 14.304C148.908 14.752 149.004 15.232 149.196 15.744C148.94 15.952 148.628 16.056 148.26 16.056C147.924 16.056 147.66 15.968 147.468 15.792C147.276 15.616 147.18 15.368 147.18 15.048C147.18 14.712 147.324 14.376 147.612 14.04C147.9 13.688 148.404 13.264 149.124 12.768C149.828 12.288 150.42 11.952 150.9 11.76C151.396 11.552 151.884 11.448 152.364 11.448C153.324 11.448 154.108 11.752 154.716 12.36C155.34 12.952 155.652 13.784 155.652 14.856V22.416C155.652 22.704 155.74 22.944 155.916 23.136C156.108 23.312 156.34 23.4 156.612 23.4C156.916 23.4 157.252 23.32 157.62 23.16V23.28C156.996 23.632 156.5 23.888 156.132 24.048C155.764 24.208 155.396 24.288 155.028 24.288C154.5 24.288 154.084 24.128 153.78 23.808C153.476 23.472 153.324 22.992 153.324 22.368V21.912C152.988 22.616 152.492 23.2 151.836 23.664C151.196 24.128 150.452 24.36 149.604 24.36ZM148.812 21.36C148.812 21.856 149.004 22.272 149.388 22.608C149.788 22.944 150.308 23.112 150.948 23.112C151.492 23.112 151.98 22.952 152.412 22.632C152.86 22.312 153.164 21.92 153.324 21.456V18.624L150.252 19.92C149.692 20.16 149.308 20.384 149.1 20.592C148.908 20.8 148.812 21.056 148.812 21.36ZM157.899 23.88L159.315 23.4V13.176L157.899 12.888V12.768L161.619 11.448H161.643V13.8C162.699 13.016 163.603 12.432 164.355 12.048C165.123 11.648 165.803 11.448 166.395 11.448C167.355 11.448 168.115 11.76 168.675 12.384C169.251 12.992 169.539 13.824 169.539 14.88V23.4L170.883 23.88V24H165.819V23.88L167.187 23.4V15.264C167.187 14.448 166.979 13.832 166.563 13.416C166.163 13 165.619 12.792 164.931 12.792C164.387 12.792 163.867 12.896 163.371 13.104C162.891 13.312 162.315 13.648 161.643 14.112V23.4L163.035 23.88V24H157.899V23.88ZM185.291 24.144C184.715 24.144 184.211 23.944 183.779 23.544C183.347 23.128 182.779 22.376 182.075 21.288L177.755 14.448H175.883V23.4L177.539 23.88V24H171.683V23.88L173.339 23.4V7.512L171.683 7.032V6.912H177.539V7.032L175.883 7.512V14.16H177.803L180.035 11.928C181.107 10.856 181.875 10.008 182.339 9.384C182.803 8.76 183.035 8.28 183.035 7.944C183.035 7.704 182.915 7.52 182.675 7.392C182.451 7.264 182.107 7.16 181.643 7.08L181.427 7.056V6.912H186.923V7.032L185.123 7.512L179.075 13.2L185.147 21.288C185.691 22.008 186.139 22.496 186.491 22.752C186.843 22.992 187.219 23.112 187.619 23.112C187.939 23.112 188.315 23.04 188.747 22.896V23.064L187.667 23.472C187.075 23.712 186.611 23.888 186.275 24C185.955 24.096 185.627 24.144 185.291 24.144ZM188.508 23.88L189.924 23.4V13.176L188.508 12.912V12.792L192.228 11.448H192.252V23.4L193.668 23.88V24H188.508V23.88ZM191.076 10.008C190.644 10.008 190.284 9.872 189.996 9.6C189.724 9.328 189.588 8.984 189.588 8.568C189.588 8.152 189.724 7.816 189.996 7.56C190.268 7.288 190.628 7.152 191.076 7.152C191.508 7.152 191.86 7.288 192.132 7.56C192.42 7.816 192.564 8.152 192.564 8.568C192.564 8.984 192.42 9.328 192.132 9.6C191.86 9.872 191.508 10.008 191.076 10.008ZM198.539 24.36C197.771 24.36 197.155 24.144 196.691 23.712C196.227 23.264 195.995 22.648 195.995 21.864V12.744H194.651V12.6C195.451 12.312 196.187 11.824 196.859 11.136C197.531 10.432 197.987 9.688 198.227 8.904H198.347V11.808H201.563V12.744H198.347V21.576C198.347 22.056 198.483 22.432 198.755 22.704C199.027 22.976 199.419 23.112 199.931 23.112C200.315 23.112 200.651 23.04 200.939 22.896C201.227 22.752 201.563 22.52 201.947 22.2L202.043 22.32C201.195 23.088 200.531 23.624 200.051 23.928C199.571 24.216 199.067 24.36 198.539 24.36ZM208.358 24.36C207.206 24.36 206.19 24.112 205.31 23.616C204.446 23.12 203.766 22.416 203.27 21.504C202.79 20.576 202.55 19.496 202.55 18.264C202.55 16.936 202.822 15.752 203.366 14.712C203.91 13.672 204.662 12.872 205.622 12.312C206.582 11.736 207.662 11.448 208.862 11.448C209.662 11.448 210.374 11.568 210.998 11.808C211.622 12.048 212.102 12.376 212.438 12.792C212.79 13.192 212.966 13.624 212.966 14.088C212.966 14.488 212.854 14.824 212.63 15.096C212.422 15.368 212.19 15.528 211.934 15.576C211.422 14.328 210.862 13.384 210.254 12.744C209.662 12.104 208.958 11.784 208.142 11.784C207.134 11.784 206.342 12.224 205.766 13.104C205.19 13.984 204.902 15.16 204.902 16.632C204.902 17.88 205.102 18.968 205.502 19.896C205.918 20.808 206.486 21.512 207.206 22.008C207.942 22.488 208.79 22.728 209.75 22.728C210.774 22.728 211.574 22.472 212.15 21.96C212.726 21.432 213.182 20.616 213.518 19.512L213.662 19.56C213.31 20.984 212.734 22.144 211.934 23.04C211.134 23.92 209.942 24.36 208.358 24.36ZM214.126 23.88L215.542 23.4V7.296L214.126 7.032V6.912L217.846 5.64H217.87V13.8C218.926 13.016 219.83 12.432 220.582 12.048C221.35 11.648 222.03 11.448 222.622 11.448C223.582 11.448 224.342 11.76 224.902 12.384C225.478 12.992 225.766 13.824 225.766 14.88V23.4L227.11 23.88V24H222.046V23.88L223.414 23.4V15.264C223.414 14.448 223.206 13.832 222.79 13.416C222.39 13 221.846 12.792 221.158 12.792C220.614 12.792 220.094 12.896 219.598 13.104C219.118 13.312 218.542 13.648 217.87 14.112V23.4L219.262 23.88V24H214.126V23.88ZM233.672 24.36C232.52 24.36 231.504 24.112 230.624 23.616C229.744 23.104 229.056 22.392 228.56 21.48C228.064 20.552 227.816 19.48 227.816 18.264C227.816 16.936 228.088 15.752 228.632 14.712C229.192 13.672 229.944 12.872 230.888 12.312C231.848 11.736 232.912 11.448 234.08 11.448C235.36 11.448 236.392 11.768 237.176 12.408C237.976 13.032 238.416 13.84 238.496 14.832H230.336C230.224 15.328 230.168 15.92 230.168 16.608C230.168 17.872 230.368 18.968 230.768 19.896C231.184 20.808 231.768 21.512 232.52 22.008C233.272 22.488 234.144 22.728 235.136 22.728C236.208 22.728 237.04 22.472 237.632 21.96C238.224 21.448 238.688 20.632 239.024 19.512L239.168 19.56C238.816 20.984 238.224 22.144 237.392 23.04C236.576 23.92 235.336 24.36 233.672 24.36ZM236.048 14.496C235.936 13.664 235.648 13.008 235.184 12.528C234.72 12.032 234.128 11.784 233.408 11.784C232.656 11.784 232.024 12.032 231.512 12.528C231 13.024 230.632 13.712 230.408 14.592L236.048 14.496ZM239.626 23.88L241.042 23.4V13.176L239.626 12.888V12.768L243.346 11.448H243.37V13.8C244.426 13.016 245.33 12.432 246.082 12.048C246.85 11.648 247.53 11.448 248.122 11.448C249.082 11.448 249.842 11.76 250.402 12.384C250.978 12.992 251.266 13.824 251.266 14.88V23.4L252.61 23.88V24H247.546V23.88L248.914 23.4V15.264C248.914 14.448 248.706 13.832 248.29 13.416C247.89 13 247.346 12.792 246.658 12.792C246.114 12.792 245.594 12.896 245.098 13.104C244.618 13.312 244.042 13.648 243.37 14.112V23.4L244.762 23.88V24H239.626V23.88ZM268.721 24.312C267.249 24.312 265.449 23.36 263.321 21.456C262.537 22.432 261.777 23.152 261.041 23.616C260.305 24.08 259.361 24.312 258.209 24.312C257.201 24.312 256.321 24.136 255.569 23.784C254.833 23.432 254.265 22.952 253.865 22.344C253.481 21.72 253.289 21.032 253.289 20.28C253.289 19.24 253.665 18.328 254.417 17.544C255.169 16.744 256.361 16.024 257.993 15.384C256.793 13.64 256.193 12.128 256.193 10.848C256.193 10.032 256.401 9.304 256.817 8.664C257.233 8.008 257.817 7.496 258.569 7.128C259.321 6.744 260.193 6.552 261.185 6.552C262.049 6.552 262.801 6.704 263.441 7.008C264.081 7.296 264.569 7.688 264.905 8.184C265.241 8.68 265.409 9.232 265.409 9.84C265.409 10.608 265.065 11.336 264.377 12.024C263.705 12.696 262.585 13.408 261.017 14.16L260.945 14.016C261.681 13.6 262.257 13.104 262.673 12.528C263.089 11.936 263.297 11.176 263.297 10.248C263.297 9.176 263.041 8.344 262.529 7.752C262.017 7.16 261.377 6.864 260.609 6.864C259.873 6.864 259.265 7.112 258.785 7.608C258.305 8.104 258.065 8.8 258.065 9.696C258.065 10.672 258.361 11.672 258.953 12.696C259.545 13.72 260.505 14.984 261.833 16.488C262.873 17.656 263.817 18.608 264.665 19.344L265.361 18.312C266.241 17.032 266.681 16.112 266.681 15.552C266.681 15.216 266.545 14.96 266.273 14.784C266.001 14.608 265.593 14.472 265.049 14.376L264.497 14.28V14.16H269.969V14.28L268.313 14.76L264.857 19.536C266.617 21.04 268.049 21.792 269.153 21.792C269.633 21.792 269.993 21.6 270.233 21.216C270.473 20.816 270.617 20.064 270.665 18.96H270.809V20.184C270.809 21.416 270.641 22.416 270.305 23.184C269.969 23.936 269.441 24.312 268.721 24.312ZM255.809 19.128C255.809 20.264 256.153 21.16 256.841 21.816C257.545 22.456 258.513 22.776 259.745 22.776C260.513 22.776 261.161 22.656 261.689 22.416C262.217 22.16 262.697 21.784 263.129 21.288C262.265 20.504 261.209 19.392 259.961 17.952C259.209 17.04 258.593 16.248 258.113 15.576C256.577 16.456 255.809 17.64 255.809 19.128ZM271.479 23.88L273.135 23.4V7.512L271.479 7.032V6.912H278.871C280.663 6.912 282.007 7.232 282.903 7.872C283.799 8.512 284.247 9.36 284.247 10.416C284.247 11.36 283.927 12.136 283.287 12.744C282.663 13.352 281.887 13.776 280.959 14.016V14.064C282.255 14.256 283.343 14.776 284.223 15.624C285.119 16.456 285.567 17.576 285.567 18.984C285.567 19.96 285.327 20.824 284.847 21.576C284.383 22.328 283.687 22.92 282.759 23.352C281.831 23.784 280.711 24 279.399 24H271.479V23.88ZM278.823 23.736C280.103 23.736 281.111 23.36 281.847 22.608C282.599 21.84 282.975 20.752 282.975 19.344C282.975 17.904 282.583 16.8 281.799 16.032C281.015 15.264 279.959 14.88 278.631 14.88H275.655V23.736H278.823ZM278.559 14.616C279.551 14.616 280.343 14.296 280.935 13.656C281.543 13 281.847 12.048 281.847 10.8C281.847 9.568 281.543 8.656 280.935 8.064C280.343 7.472 279.535 7.176 278.511 7.176H275.655V14.616H278.559ZM289.596 24.36C288.988 24.36 288.46 24.248 288.012 24.024C287.564 23.816 287.22 23.536 286.98 23.184C286.74 22.832 286.62 22.464 286.62 22.08C286.62 21.712 286.74 21.408 286.98 21.168C287.236 20.928 287.732 20.656 288.468 20.352L293.316 18.336V14.904C293.316 13.976 293.132 13.304 292.764 12.888C292.412 12.472 291.892 12.264 291.204 12.264C290.516 12.264 289.956 12.448 289.524 12.816C289.108 13.184 288.9 13.68 288.9 14.304C288.9 14.752 288.996 15.232 289.188 15.744C288.932 15.952 288.62 16.056 288.252 16.056C287.916 16.056 287.652 15.968 287.46 15.792C287.268 15.616 287.172 15.368 287.172 15.048C287.172 14.712 287.316 14.376 287.604 14.04C287.892 13.688 288.396 13.264 289.116 12.768C289.82 12.288 290.412 11.952 290.892 11.76C291.388 11.552 291.876 11.448 292.356 11.448C293.316 11.448 294.1 11.752 294.708 12.36C295.332 12.952 295.644 13.784 295.644 14.856V22.416C295.644 22.704 295.732 22.944 295.908 23.136C296.1 23.312 296.332 23.4 296.604 23.4C296.908 23.4 297.244 23.32 297.612 23.16V23.28C296.988 23.632 296.492 23.888 296.124 24.048C295.756 24.208 295.388 24.288 295.02 24.288C294.492 24.288 294.076 24.128 293.772 23.808C293.468 23.472 293.316 22.992 293.316 22.368V21.912C292.98 22.616 292.484 23.2 291.828 23.664C291.188 24.128 290.444 24.36 289.596 24.36ZM288.804 21.36C288.804 21.856 288.996 22.272 289.38 22.608C289.78 22.944 290.3 23.112 290.94 23.112C291.484 23.112 291.972 22.952 292.404 22.632C292.852 22.312 293.156 21.92 293.316 21.456V18.624L290.244 19.92C289.684 20.16 289.3 20.384 289.092 20.592C288.9 20.8 288.804 21.056 288.804 21.36ZM301.758 24.36C300.99 24.36 300.374 24.144 299.91 23.712C299.446 23.264 299.214 22.648 299.214 21.864V12.744H297.87V12.6C298.67 12.312 299.406 11.824 300.078 11.136C300.75 10.432 301.206 9.688 301.446 8.904H301.566V11.808H304.782V12.744H301.566V21.576C301.566 22.056 301.702 22.432 301.974 22.704C302.246 22.976 302.638 23.112 303.15 23.112C303.534 23.112 303.87 23.04 304.158 22.896C304.446 22.752 304.782 22.52 305.166 22.2L305.262 22.32C304.414 23.088 303.75 23.624 303.27 23.928C302.79 24.216 302.286 24.36 301.758 24.36ZM305.743 23.88L307.159 23.4V7.296L305.743 7.032V6.912L309.463 5.64H309.487V13.8C310.543 13.016 311.447 12.432 312.199 12.048C312.967 11.648 313.647 11.448 314.239 11.448C315.199 11.448 315.959 11.76 316.519 12.384C317.095 12.992 317.383 13.824 317.383 14.88V23.4L318.727 23.88V24H313.663V23.88L315.031 23.4V15.264C315.031 14.448 314.823 13.832 314.407 13.416C314.007 13 313.463 12.792 312.775 12.792C312.231 12.792 311.711 12.896 311.215 13.104C310.735 13.312 310.159 13.648 309.487 14.112V23.4L310.879 23.88V24H305.743V23.88Z" fill="#242424"/>
<defs>
<linearGradient id="paint0_linear_126_1579" x1="28" y1="-10" x2="28" y2="63" gradientUnits="userSpaceOnUse">
<stop stop-color="#FAEBC2"/>
<stop offset="0.244792" stop-color="#E9CF9E"/>
<stop offset="0.588542" stop-color="#BE9857"/>
<stop offset="1" stop-color="#71420C"/>
</linearGradient>
</defs>
</svg>
