<svg width="214" height="36" viewBox="0 0 214 36" fill="none" xmlns="http://www.w3.org/2000/svg">
<g id="Vector">
<path d="M3.86217 31.8385L3.9236 35.2886C3.9236 35.35 3.88265 35.391 3.82122 35.391H3.00222C2.94079 35.391 2.89984 35.35 2.89984 35.2886L2.96127 31.8385L2.91008 28.9618H0.944463C0.883038 28.9618 0.842088 28.9208 0.842088 28.8594V28.3271C0.842088 28.2656 0.883038 28.2247 0.944463 28.2247H5.87897C5.9404 28.2247 5.98135 28.2656 5.98135 28.3271V28.8594C5.98135 28.9208 5.9404 28.9618 5.87897 28.9618H3.91336L3.86217 31.8385Z" fill="#242424"/>
<path d="M14.4925 31.1833L14.4618 28.3271C14.4618 28.2656 14.5028 28.2247 14.5642 28.2247H15.3525C15.4139 28.2247 15.4549 28.2656 15.4549 28.3271L15.4139 31.8488L15.4549 35.2886C15.4549 35.35 15.4139 35.391 15.3525 35.391H14.5642C14.5028 35.391 14.4618 35.35 14.4618 35.2886L14.5028 31.9102H10.6739L10.7251 35.2886C10.7251 35.35 10.6842 35.391 10.6227 35.391H9.8242C9.76277 35.391 9.72182 35.35 9.72182 35.2886L9.77301 31.8488L9.72182 28.3271C9.72182 28.2656 9.76277 28.2247 9.8242 28.2247H10.6227C10.6842 28.2247 10.7251 28.2656 10.7251 28.3271L10.6842 31.1833H14.4925Z" fill="#242424"/>
<path d="M24.126 34.6641C24.1874 34.6641 24.2284 34.7051 24.2284 34.7665V35.2886C24.2284 35.35 24.1874 35.391 24.126 35.391H19.7239C19.6624 35.391 19.6215 35.35 19.6215 35.2886L19.6727 31.685L19.6215 28.3271C19.6215 28.2656 19.6624 28.2247 19.7239 28.2247H24.0441C24.1055 28.2247 24.1465 28.2656 24.1465 28.3271V28.8492C24.1465 28.9106 24.1055 28.9515 24.0441 28.9515H20.6145L20.5736 31.2038H23.7984C23.8598 31.2038 23.9008 31.2448 23.9008 31.3062V31.8283C23.9008 31.8897 23.8598 31.9307 23.7984 31.9307H20.5736L20.6145 34.6641H24.126Z" fill="#242424"/>
<path d="M36.1748 35.5241C34.0761 35.5241 32.8373 34.1215 32.8373 31.7976C32.8373 29.5351 34.117 28.0916 36.1748 28.0916C37.5978 28.0916 38.8161 28.7366 39.1641 30.5793C39.1744 30.651 39.1437 30.6919 39.072 30.6919H38.3349C38.2735 30.6919 38.2427 30.6612 38.2223 30.5998C37.997 29.3815 37.2088 28.8389 36.1645 28.8389C34.6698 28.8389 33.8201 29.9958 33.8201 31.7976C33.8201 33.7632 34.7005 34.7767 36.1543 34.7767C37.3418 34.7767 38.1097 34.1113 38.2632 32.8725C38.2735 32.8009 38.3042 32.7702 38.3656 32.7702H39.1232C39.1846 32.7702 39.2256 32.8111 39.2153 32.893C38.9389 34.6846 37.8025 35.5241 36.1748 35.5241Z" fill="#242424"/>
<path d="M46.3063 35.5241C44.2383 35.5241 42.8869 34.0499 42.8869 31.8181C42.8869 29.5248 44.2383 28.0916 46.3063 28.0916C48.3743 28.0916 49.7359 29.5146 49.7359 31.8181C49.7359 34.0601 48.364 35.5241 46.3063 35.5241ZM46.3063 34.7767C47.8317 34.7767 48.7428 33.6608 48.7428 31.8181C48.7428 29.9753 47.8317 28.8389 46.3063 28.8389C44.7809 28.8389 43.8697 29.9651 43.8697 31.8181C43.8697 33.6506 44.8014 34.7767 46.3063 34.7767Z" fill="#242424"/>
<path d="M54.5721 32.4118L54.5823 35.2886C54.5823 35.35 54.5414 35.391 54.4799 35.391H53.7838C53.7224 35.391 53.6814 35.35 53.6814 35.2886L53.7326 31.8795L53.6916 28.3271C53.6916 28.2656 53.7326 28.2247 53.794 28.2247H54.9099C54.9611 28.2247 55.0021 28.2451 55.0225 28.3066L57.2953 34.1829L59.5168 28.3066C59.5373 28.2451 59.5783 28.2247 59.6294 28.2247H60.6737C60.7351 28.2247 60.7761 28.2656 60.7761 28.3271L60.7351 31.8795L60.7863 35.2886C60.7863 35.35 60.7453 35.391 60.6839 35.391H59.9161C59.8547 35.391 59.8137 35.35 59.8137 35.2886L59.824 32.4118L59.8547 29.5044L57.6536 35.3091C57.6331 35.3705 57.5922 35.391 57.541 35.391H56.937C56.8858 35.391 56.8448 35.3705 56.8243 35.3091L54.5311 29.4122L54.5721 32.4118Z" fill="#242424"/>
<path d="M64.9407 28.3271C64.9407 28.2656 64.9817 28.2247 65.0431 28.2247H67.3875C68.9539 28.2247 69.9367 28.9618 69.9367 30.395C69.9367 31.8897 68.9232 32.6268 67.3978 32.6268H65.9031L65.9338 35.2886C65.9338 35.35 65.8928 35.391 65.8314 35.391H65.0431C64.9817 35.391 64.9407 35.35 64.9407 35.2886L64.9919 31.7157L64.9407 28.3271ZM65.8928 31.7566V31.9102H67.4592C68.3703 31.9102 68.9948 31.5007 68.9948 30.4155C68.9948 29.4122 68.4215 28.9413 67.4182 28.9413H65.9236L65.8928 31.7566Z" fill="#242424"/>
<path d="M76.0557 28.2247C76.1069 28.2247 76.1581 28.2451 76.1786 28.3066L78.6561 35.2784C78.6765 35.35 78.6458 35.391 78.5742 35.391H77.7859C77.7347 35.391 77.6835 35.3603 77.663 35.3091L76.9464 33.2206H74.0287L73.3325 35.3091C73.312 35.3603 73.2609 35.391 73.2097 35.391H72.4521C72.3804 35.391 72.3497 35.35 72.3702 35.2784L74.8579 28.3066C74.8784 28.2451 74.9296 28.2247 74.9808 28.2247H76.0557ZM76.6904 32.4528L75.4722 28.9004L74.2846 32.4528H76.6904Z" fill="#242424"/>
<path d="M83.2518 32.2173L83.262 35.2886C83.262 35.35 83.2211 35.391 83.1596 35.391H82.443C82.3816 35.391 82.3406 35.35 82.3406 35.2886L82.3918 31.7464L82.3509 28.3271C82.3509 28.2656 82.3918 28.2247 82.4532 28.2247H83.3951C83.4463 28.2247 83.4872 28.2554 83.5179 28.2963L87.2547 34.1215L87.2342 31.4495L87.2239 28.3271C87.2239 28.2656 87.2649 28.2247 87.3263 28.2247H88.043C88.1044 28.2247 88.1453 28.2656 88.1453 28.3271L88.1044 31.7464L88.1351 35.2886C88.1351 35.35 88.0941 35.391 88.0327 35.391H87.0499C86.9987 35.391 86.9578 35.3603 86.9271 35.3193L83.2211 29.5658L83.2518 32.2173Z" fill="#242424"/>
<path d="M94.2556 35.391C94.1942 35.391 94.1533 35.35 94.1533 35.2886L94.1942 32.8725L91.8498 28.3475C91.8191 28.2759 91.8498 28.2247 91.9215 28.2247H92.7917C92.8428 28.2247 92.894 28.2452 92.9145 28.2963L94.6959 32.0126L96.4874 28.2963C96.5079 28.2452 96.5591 28.2247 96.6103 28.2247H97.3986C97.4702 28.2247 97.501 28.2759 97.4702 28.3475L95.1054 32.893L95.1463 35.2886C95.1463 35.35 95.1054 35.391 95.0439 35.391H94.2556Z" fill="#242424"/>
<path d="M107.806 35.391C107.745 35.391 107.704 35.35 107.704 35.2886L107.745 32.8725L105.401 28.3475C105.37 28.2759 105.401 28.2247 105.472 28.2247H106.342C106.394 28.2247 106.445 28.2452 106.465 28.2963L108.247 32.0126L110.038 28.2963C110.059 28.2452 110.11 28.2247 110.161 28.2247H110.949C111.021 28.2247 111.052 28.2759 111.021 28.3475L108.656 32.893L108.697 35.2886C108.697 35.35 108.656 35.391 108.595 35.391H107.806Z" fill="#242424"/>
<path d="M117.375 35.5241C115.307 35.5241 113.956 34.0499 113.956 31.8181C113.956 29.5248 115.307 28.0916 117.375 28.0916C119.443 28.0916 120.805 29.5146 120.805 31.8181C120.805 34.0601 119.433 35.5241 117.375 35.5241ZM117.375 34.7767C118.901 34.7767 119.812 33.6608 119.812 31.8181C119.812 29.9753 118.901 28.8389 117.375 28.8389C115.85 28.8389 114.939 29.9651 114.939 31.8181C114.939 33.6506 115.871 34.7767 117.375 34.7767Z" fill="#242424"/>
<path d="M127.402 35.5241C125.631 35.5241 124.73 34.4798 124.74 32.678L124.751 30.4155L124.71 28.3271C124.71 28.2656 124.751 28.2247 124.812 28.2247H125.621C125.682 28.2247 125.723 28.2656 125.723 28.3271L125.692 30.395L125.703 32.678C125.703 33.9168 126.184 34.7562 127.402 34.7562C128.651 34.7562 129.153 33.9168 129.153 32.678V30.4053L129.122 28.3271C129.122 28.2656 129.163 28.2247 129.224 28.2247H129.962C130.023 28.2247 130.064 28.2656 130.064 28.3271L130.033 30.4155V32.678C130.033 34.4798 129.173 35.5241 127.402 35.5241Z" fill="#242424"/>
<path d="M142.174 35.5241C140.075 35.5241 138.836 34.1215 138.836 31.7976C138.836 29.5351 140.116 28.0916 142.174 28.0916C143.597 28.0916 144.815 28.7366 145.163 30.5793C145.173 30.651 145.143 30.6919 145.071 30.6919H144.334C144.272 30.6919 144.242 30.6612 144.221 30.5998C143.996 29.3815 143.208 28.8389 142.163 28.8389C140.669 28.8389 139.819 29.9958 139.819 31.7976C139.819 33.7632 140.699 34.7767 142.153 34.7767C143.341 34.7767 144.109 34.1113 144.262 32.8725C144.272 32.8009 144.303 32.7702 144.364 32.7702H145.122C145.184 32.7702 145.224 32.8111 145.214 32.893C144.938 34.6846 143.801 35.5241 142.174 35.5241Z" fill="#242424"/>
<path d="M152.016 28.2247C152.067 28.2247 152.118 28.2451 152.139 28.3066L154.616 35.2784C154.637 35.35 154.606 35.391 154.534 35.391H153.746C153.695 35.391 153.643 35.3603 153.623 35.3091L152.906 33.2206H149.989L149.293 35.3091C149.272 35.3603 149.221 35.391 149.17 35.391H148.412C148.34 35.391 148.31 35.35 148.33 35.2784L150.818 28.3066C150.838 28.2451 150.89 28.2247 150.941 28.2247H152.016ZM152.65 32.4528L151.432 28.9004L150.245 32.4528H152.65Z" fill="#242424"/>
<path d="M159.212 32.2173L159.222 35.2886C159.222 35.35 159.181 35.391 159.12 35.391H158.403C158.342 35.391 158.301 35.35 158.301 35.2886L158.352 31.7464L158.311 28.3271C158.311 28.2656 158.352 28.2247 158.413 28.2247H159.355C159.406 28.2247 159.447 28.2554 159.478 28.2963L163.215 34.1215L163.194 31.4495L163.184 28.3271C163.184 28.2656 163.225 28.2247 163.286 28.2247H164.003C164.064 28.2247 164.105 28.2656 164.105 28.3271L164.064 31.7464L164.095 35.2886C164.095 35.35 164.054 35.391 163.993 35.391H163.01C162.959 35.391 162.918 35.3603 162.887 35.3193L159.181 29.5658L159.212 32.2173Z" fill="#242424"/>
<path d="M175.681 31.8385L175.743 35.2886C175.743 35.35 175.702 35.391 175.641 35.391H174.822C174.76 35.391 174.719 35.35 174.719 35.2886L174.781 31.8385L174.729 28.9618H172.764C172.702 28.9618 172.661 28.9208 172.661 28.8594V28.3271C172.661 28.2656 172.702 28.2247 172.764 28.2247H177.698C177.76 28.2247 177.801 28.2656 177.801 28.3271V28.8594C177.801 28.9208 177.76 28.9618 177.698 28.9618H175.733L175.681 31.8385Z" fill="#242424"/>
<path d="M185.032 32.3607L186.885 35.2681C186.926 35.3398 186.906 35.391 186.824 35.391H185.933C185.882 35.391 185.841 35.3603 185.81 35.3193L185.124 34.1932L184.008 32.4426H182.503L182.534 35.2886C182.534 35.35 182.493 35.391 182.432 35.391H181.643C181.582 35.391 181.541 35.35 181.541 35.2886L181.592 31.6952L181.541 28.3271C181.541 28.2656 181.582 28.2247 181.643 28.2247H184.152C185.779 28.2247 186.783 28.9311 186.783 30.3234C186.783 31.4597 186.107 32.1457 185.032 32.3607ZM184.234 28.9413H182.524L182.493 31.7259H184.254C185.196 31.7259 185.841 31.3164 185.841 30.3336C185.841 29.4122 185.247 28.9413 184.234 28.9413Z" fill="#242424"/>
<path d="M193.432 35.5241C191.661 35.5241 190.76 34.4798 190.771 32.678L190.781 30.4155L190.74 28.3271C190.74 28.2656 190.781 28.2247 190.842 28.2247H191.651C191.713 28.2247 191.753 28.2656 191.753 28.3271L191.723 30.395L191.733 32.678C191.733 33.9168 192.214 34.7562 193.432 34.7562C194.681 34.7562 195.183 33.9168 195.183 32.678V30.4053L195.152 28.3271C195.152 28.2656 195.193 28.2247 195.255 28.2247H195.992C196.053 28.2247 196.094 28.2656 196.094 28.3271L196.064 30.4155V32.678C196.064 34.4798 195.204 35.5241 193.432 35.5241Z" fill="#242424"/>
<path d="M202.913 35.5138C201.101 35.5138 200.026 34.6436 199.955 33.0261C199.955 32.9647 199.996 32.9237 200.057 32.9237H200.845C200.907 32.9237 200.948 32.9544 200.958 33.0261C201.05 34.1113 201.552 34.7767 202.944 34.7767C204.009 34.7767 204.756 34.3877 204.756 33.4151C204.756 31.3881 200.098 32.8623 200.098 30.1493C200.098 28.8389 201.142 28.1018 202.719 28.1018C204.357 28.1018 205.37 28.798 205.534 30.2415C205.544 30.3131 205.493 30.3541 205.432 30.3541H204.644C204.582 30.3541 204.541 30.3234 204.531 30.2517C204.459 29.3201 203.845 28.8389 202.698 28.8389C201.716 28.8389 201.03 29.228 201.03 30.0674C201.03 31.9409 205.698 30.4974 205.698 33.3025C205.698 34.7665 204.541 35.5138 202.913 35.5138Z" fill="#242424"/>
<path d="M211.881 31.8385L211.942 35.2886C211.942 35.35 211.901 35.391 211.84 35.391H211.021C210.96 35.391 210.919 35.35 210.919 35.2886L210.98 31.8385L210.929 28.9618H208.963C208.902 28.9618 208.861 28.9208 208.861 28.8594V28.3271C208.861 28.2656 208.902 28.2247 208.963 28.2247H213.898C213.959 28.2247 214 28.2656 214 28.3271V28.8594C214 28.9208 213.959 28.9618 213.898 28.9618H211.932L211.881 31.8385Z" fill="#242424"/>
<path d="M0.412109 15.6666L1.43587 15.2571L7.39414 0.8221H7.43509L13.8029 15.2571L14.8061 15.6666V15.769H9.974V15.6666L11.4482 15.2571L9.09357 9.83117H3.97479C3.29228 11.592 2.95103 12.8956 2.95103 13.7419C2.95103 14.3152 3.09435 14.7384 3.38101 15.0114C3.68131 15.2707 4.15224 15.4687 4.79379 15.6052L5.14187 15.6666V15.769H0.412109V15.6666ZM8.9912 9.58546L6.45228 3.7091L4.32286 8.95073L4.07716 9.58546H8.9912Z" fill="#242424"/>
<path d="M14.8031 15.6666L16.0111 15.2571V6.53467L14.8031 6.28896V6.18659L17.9767 5.06046H17.9972V7.06702C18.8845 6.39817 19.6489 5.89994 20.2904 5.57233C20.932 5.23108 21.5053 5.06046 22.0104 5.06046C22.6519 5.06046 23.1979 5.24473 23.6484 5.61328C24.0988 5.96819 24.3923 6.47324 24.5288 7.12845C25.4707 6.43229 26.2624 5.91359 26.9039 5.57233C27.5591 5.23108 28.1324 5.06046 28.6238 5.06046C29.4155 5.06046 30.0434 5.32663 30.5075 5.85899C30.9853 6.37769 31.2242 7.0875 31.2242 7.9884V15.2571L32.3913 15.6666V15.769H28.0505V15.6666L29.2381 15.2571V8.316C29.2381 7.6335 29.0606 7.1148 28.7057 6.75989C28.3645 6.39134 27.914 6.20706 27.3544 6.20706C26.9312 6.20706 26.5081 6.30261 26.0849 6.49372C25.6618 6.67117 25.1567 6.96464 24.5697 7.37415C24.597 7.61985 24.6107 7.8246 24.6107 7.9884V15.2571L25.7573 15.6666V15.769H21.437V15.6666L22.6246 15.2571V8.316C22.6246 7.61985 22.4472 7.09432 22.0923 6.73942C21.751 6.38452 21.2937 6.20706 20.7204 6.20706C20.2973 6.20706 19.8741 6.29579 19.451 6.47324C19.0415 6.65069 18.5569 6.93734 17.9972 7.3332V15.2571L19.1848 15.6666V15.769H14.8031V15.6666Z" fill="#242424"/>
<path d="M37.9771 16.0761C36.9943 16.0761 36.1275 15.8645 35.3768 15.4414C34.626 15.0046 34.0391 14.3971 33.6159 13.6191C33.1928 12.8274 32.9812 11.9128 32.9812 10.8754C32.9812 9.74244 33.2132 8.73233 33.6773 7.84508C34.1551 6.95782 34.7967 6.27531 35.602 5.79756C36.421 5.30616 37.3288 5.06046 38.3252 5.06046C39.4172 5.06046 40.2976 5.33346 40.9665 5.87946C41.649 6.41182 42.0244 7.10115 42.0926 7.94745H35.1311C35.0355 8.3706 34.9878 8.87566 34.9878 9.46261C34.9878 10.541 35.1584 11.476 35.4996 12.2677C35.8545 13.0458 36.3528 13.6464 36.9943 14.0695C37.6359 14.479 38.3798 14.6838 39.2261 14.6838C40.1407 14.6838 40.8505 14.4654 41.3555 14.0286C41.8606 13.5918 42.2564 12.8956 42.5431 11.9401L42.6659 11.9811C42.3656 13.1959 41.8606 14.1855 41.1508 14.95C40.4546 15.7007 39.3967 16.0761 37.9771 16.0761ZM40.0042 7.6608C39.9086 6.95099 39.6629 6.39134 39.2671 5.98184C38.8712 5.55868 38.3662 5.34711 37.7519 5.34711C37.1103 5.34711 36.5712 5.55868 36.1344 5.98184C35.6976 6.40499 35.3836 6.99194 35.1925 7.7427L40.0042 7.6608Z" fill="#242424"/>
<path d="M43.0564 15.6666L44.2644 15.2571V6.53467L43.0564 6.28896V6.18659L46.2301 5.06046H46.2505V6.84179C47.4381 5.65424 48.4345 5.06046 49.2399 5.06046C49.5675 5.06046 49.8269 5.15601 50.018 5.34711C50.2227 5.53821 50.3251 5.79756 50.3251 6.12516C50.3251 6.52102 50.1954 6.83497 49.9361 7.06702C49.199 6.67117 48.5301 6.47324 47.9295 6.47324C47.3016 6.47324 46.7419 6.67799 46.2505 7.08749V15.2571L47.7247 15.6666V15.769H43.0564V15.6666Z" fill="#242424"/>
<path d="M50.8746 15.6666L52.0826 15.2571V6.53467L50.8746 6.30944V6.20706L54.0482 5.06046H54.0687V15.2571L55.2767 15.6666V15.769H50.8746V15.6666ZM53.0654 3.83195C52.6968 3.83195 52.3897 3.71592 52.144 3.48387C51.912 3.25182 51.7959 2.95834 51.7959 2.60344C51.7959 2.24853 51.912 1.96188 52.144 1.74348C52.3761 1.51143 52.6832 1.3954 53.0654 1.3954C53.434 1.3954 53.7343 1.51143 53.9663 1.74348C54.212 1.96188 54.3349 2.24853 54.3349 2.60344C54.3349 2.95834 54.212 3.25182 53.9663 3.48387C53.7343 3.71592 53.434 3.83195 53.0654 3.83195Z" fill="#242424"/>
<path d="M61.0907 16.0761C60.1079 16.0761 59.2411 15.8645 58.4903 15.4414C57.7532 15.0182 57.1731 14.4176 56.75 13.6395C56.3405 12.8478 56.1357 11.9265 56.1357 10.8754C56.1357 9.74244 56.3678 8.73233 56.8319 7.84508C57.296 6.95782 57.9375 6.27531 58.7565 5.79756C59.5755 5.30616 60.4969 5.06046 61.5207 5.06046C62.2032 5.06046 62.8106 5.16283 63.343 5.36758C63.8753 5.57233 64.2848 5.85216 64.5715 6.20706C64.8718 6.54832 65.0219 6.91687 65.0219 7.31272C65.0219 7.65397 64.9264 7.94063 64.7353 8.17268C64.5578 8.40473 64.3599 8.54123 64.1415 8.58218C63.7047 7.51747 63.2269 6.71212 62.7082 6.16611C62.2032 5.62011 61.6026 5.34711 60.9064 5.34711C60.0465 5.34711 59.3708 5.72249 58.8794 6.47324C58.388 7.224 58.1423 8.22728 58.1423 9.48309C58.1423 10.5478 58.3129 11.476 58.6542 12.2677C59.0091 13.0458 59.4936 13.6464 60.1079 14.0695C60.7358 14.479 61.4592 14.6838 62.2783 14.6838C63.1519 14.6838 63.8344 14.4654 64.3258 14.0286C64.8172 13.5781 65.2062 12.882 65.4929 11.9401L65.6157 11.9811C65.3154 13.1959 64.824 14.1855 64.1415 14.95C63.459 15.7007 62.4421 16.0761 61.0907 16.0761Z" fill="#242424"/>
<path d="M68.6318 16.0761C68.1131 16.0761 67.6626 15.9805 67.2804 15.7894C66.8982 15.612 66.6048 15.3731 66.4 15.0728C66.1953 14.7725 66.0929 14.4585 66.0929 14.1309C66.0929 13.817 66.1953 13.5576 66.4 13.3529C66.6184 13.1481 67.0415 12.9161 67.6695 12.6567L71.8054 10.9368V8.00888C71.8054 7.21717 71.6485 6.64387 71.3345 6.28896C71.0342 5.93406 70.5906 5.75661 70.0036 5.75661C69.4167 5.75661 68.9389 5.91359 68.5704 6.22754C68.2155 6.54149 68.038 6.96464 68.038 7.497C68.038 7.8792 68.1199 8.2887 68.2837 8.72551C68.0653 8.90296 67.7991 8.99168 67.4852 8.99168C67.1985 8.99168 66.9733 8.91661 66.8095 8.76646C66.6457 8.61631 66.5638 8.40473 66.5638 8.13173C66.5638 7.84508 66.6867 7.55842 66.9324 7.27177C67.1781 6.97147 67.608 6.60974 68.2223 6.18659C68.8229 5.77709 69.3279 5.49043 69.7374 5.32663C70.1606 5.14918 70.5769 5.06046 70.9864 5.06046C71.8054 5.06046 72.4743 5.31981 72.993 5.83851C73.5254 6.34356 73.7915 7.05337 73.7915 7.96793V14.4176C73.7915 14.6633 73.8666 14.8681 74.0168 15.0319C74.1806 15.182 74.3785 15.2571 74.6105 15.2571C74.8699 15.2571 75.1565 15.1888 75.4705 15.0523V15.1547C74.9381 15.455 74.515 15.6734 74.201 15.8099C73.8871 15.9464 73.5731 16.0147 73.2592 16.0147C72.8087 16.0147 72.4538 15.8782 72.1945 15.6052C71.9351 15.3185 71.8054 14.909 71.8054 14.3766V13.9876C71.5188 14.5882 71.0956 15.0865 70.536 15.4823C69.99 15.8782 69.3552 16.0761 68.6318 16.0761ZM67.9561 13.5167C67.9561 13.9398 68.1199 14.2947 68.4475 14.5814C68.7888 14.8681 69.2324 15.0114 69.7784 15.0114C70.2425 15.0114 70.6588 14.8749 71.0274 14.6019C71.4096 14.3289 71.6689 13.9944 71.8054 13.5986V11.1825L69.1846 12.2882C68.7069 12.4929 68.3793 12.684 68.2018 12.8615C68.038 13.0389 67.9561 13.2573 67.9561 13.5167Z" fill="#242424"/>
<path d="M75.7087 15.6666L76.9167 15.2571V6.53467L75.7087 6.28896V6.18659L78.8823 5.06046H78.9028V7.06702C79.8037 6.39817 80.5749 5.89994 81.2165 5.57233C81.8717 5.23108 82.4518 5.06046 82.9569 5.06046C83.7759 5.06046 84.4243 5.32663 84.902 5.85899C85.3934 6.37769 85.6391 7.0875 85.6391 7.9884V15.2571L86.7857 15.6666V15.769H82.4655V15.6666L83.6326 15.2571V8.316C83.6326 7.61985 83.4551 7.09432 83.1002 6.73942C82.7589 6.38452 82.2948 6.20706 81.7079 6.20706C81.2438 6.20706 80.8002 6.29579 80.377 6.47324C79.9675 6.65069 79.4761 6.93734 78.9028 7.3332V15.2571L80.0904 15.6666V15.769H75.7087V15.6666Z" fill="#242424"/>
<path d="M99.0772 15.8918C98.5858 15.8918 98.1558 15.7212 97.7873 15.3799C97.4187 15.025 96.9342 14.3835 96.3335 13.4553L92.648 7.61985H91.051V15.2571L92.4637 15.6666V15.769H87.4678V15.6666L88.8806 15.2571V1.70253L87.4678 1.29303V1.19065H92.4637V1.29303L91.051 1.70253V7.37415H92.689L94.5932 5.46996C95.5077 4.5554 96.1629 3.83195 96.5588 3.29959C96.9546 2.76724 97.1525 2.35774 97.1525 2.07108C97.1525 1.86633 97.0502 1.70936 96.8454 1.60015C96.6543 1.49095 96.3608 1.40223 95.965 1.33398L95.7807 1.3135V1.19065H100.47V1.29303L98.9339 1.70253L93.7742 6.55514L98.9544 13.4553C99.4185 14.0695 99.8007 14.4859 100.101 14.7043C100.401 14.909 100.722 15.0114 101.063 15.0114C101.336 15.0114 101.657 14.95 102.026 14.8271V14.9704L101.104 15.3185C100.599 15.5233 100.203 15.6734 99.9167 15.769C99.6437 15.8509 99.3639 15.8918 99.0772 15.8918Z" fill="#242424"/>
<path d="M101.822 15.6666L103.031 15.2571V6.53467L101.822 6.30944V6.20706L104.996 5.06046H105.017V15.2571L106.225 15.6666V15.769H101.822V15.6666ZM104.013 3.83195C103.645 3.83195 103.338 3.71592 103.092 3.48387C102.86 3.25182 102.744 2.95834 102.744 2.60344C102.744 2.24853 102.86 1.96188 103.092 1.74348C103.324 1.51143 103.631 1.3954 104.013 1.3954C104.382 1.3954 104.682 1.51143 104.914 1.74348C105.16 1.96188 105.283 2.24853 105.283 2.60344C105.283 2.95834 105.16 3.25182 104.914 3.48387C104.682 3.71592 104.382 3.83195 104.013 3.83195Z" fill="#242424"/>
<path d="M110.38 16.0761C109.725 16.0761 109.199 15.8918 108.804 15.5233C108.408 15.1411 108.21 14.6155 108.21 13.9467V6.16611H107.063V6.04326C107.746 5.79756 108.374 5.38123 108.947 4.79428C109.52 4.19367 109.909 3.55894 110.114 2.89009H110.216V5.36758H112.96V6.16611H110.216V13.701C110.216 14.1105 110.332 14.4312 110.564 14.6633C110.796 14.8954 111.131 15.0114 111.568 15.0114C111.895 15.0114 112.182 14.95 112.428 14.8271C112.673 14.7043 112.96 14.5063 113.288 14.2333L113.37 14.3357C112.646 14.9909 112.08 15.4482 111.67 15.7075C111.261 15.9532 110.831 16.0761 110.38 16.0761Z" fill="#242424"/>
<path d="M118.757 16.0761C117.774 16.0761 116.907 15.8645 116.157 15.4414C115.42 15.0182 114.839 14.4176 114.416 13.6395C114.007 12.8478 113.802 11.9265 113.802 10.8754C113.802 9.74244 114.034 8.73233 114.498 7.84508C114.962 6.95782 115.604 6.27531 116.423 5.79756C117.242 5.30616 118.163 5.06046 119.187 5.06046C119.87 5.06046 120.477 5.16283 121.009 5.36758C121.542 5.57233 121.951 5.85216 122.238 6.20706C122.538 6.54832 122.688 6.91687 122.688 7.31272C122.688 7.65397 122.593 7.94063 122.402 8.17268C122.224 8.40473 122.026 8.54123 121.808 8.58218C121.371 7.51747 120.893 6.71212 120.375 6.16611C119.87 5.62011 119.269 5.34711 118.573 5.34711C117.713 5.34711 117.037 5.72249 116.546 6.47324C116.054 7.224 115.809 8.22728 115.809 9.48309C115.809 10.5478 115.979 11.476 116.32 12.2677C116.675 13.0458 117.16 13.6464 117.774 14.0695C118.402 14.479 119.126 14.6838 119.945 14.6838C120.818 14.6838 121.501 14.4654 121.992 14.0286C122.484 13.5781 122.873 12.882 123.159 11.9401L123.282 11.9811C122.982 13.1959 122.49 14.1855 121.808 14.95C121.125 15.7007 120.108 16.0761 118.757 16.0761Z" fill="#242424"/>
<path d="M123.677 15.6666L124.885 15.2571V1.51825L123.677 1.29303V1.19065L126.851 0.105469H126.871V7.06702C127.772 6.39817 128.544 5.89994 129.185 5.57233C129.84 5.23108 130.42 5.06046 130.926 5.06046C131.745 5.06046 132.393 5.32663 132.871 5.85899C133.362 6.37769 133.608 7.0875 133.608 7.9884V15.2571L134.754 15.6666V15.769H130.434V15.6666L131.601 15.2571V8.316C131.601 7.61985 131.424 7.09432 131.069 6.73942C130.728 6.38452 130.263 6.20706 129.677 6.20706C129.212 6.20706 128.769 6.29579 128.346 6.47324C127.936 6.65069 127.445 6.93734 126.871 7.3332V15.2571L128.059 15.6666V15.769H123.677V15.6666Z" fill="#242424"/>
<path d="M140.353 16.0761C139.37 16.0761 138.503 15.8645 137.753 15.4414C137.002 15.0046 136.415 14.3971 135.992 13.6191C135.569 12.8274 135.357 11.9128 135.357 10.8754C135.357 9.74244 135.589 8.73233 136.053 7.84508C136.531 6.95782 137.172 6.27531 137.978 5.79756C138.797 5.30616 139.704 5.06046 140.701 5.06046C141.793 5.06046 142.673 5.33346 143.342 5.87946C144.025 6.41182 144.4 7.10115 144.468 7.94745H137.507C137.411 8.3706 137.364 8.87566 137.364 9.46261C137.364 10.541 137.534 11.476 137.875 12.2677C138.23 13.0458 138.729 13.6464 139.37 14.0695C140.012 14.479 140.756 14.6838 141.602 14.6838C142.516 14.6838 143.226 14.4654 143.731 14.0286C144.236 13.5918 144.632 12.8956 144.919 11.9401L145.042 11.9811C144.741 13.1959 144.236 14.1855 143.527 14.95C142.83 15.7007 141.772 16.0761 140.353 16.0761ZM142.38 7.6608C142.284 6.95099 142.039 6.39134 141.643 5.98184C141.247 5.55868 140.742 5.34711 140.128 5.34711C139.486 5.34711 138.947 5.55868 138.51 5.98184C138.073 6.40499 137.759 6.99194 137.568 7.7427L142.38 7.6608Z" fill="#242424"/>
<path d="M145.432 15.6666L146.64 15.2571V6.53467L145.432 6.28896V6.18659L148.606 5.06046H148.626V7.06702C149.527 6.39817 150.298 5.89994 150.94 5.57233C151.595 5.23108 152.175 5.06046 152.68 5.06046C153.499 5.06046 154.148 5.32663 154.626 5.85899C155.117 6.37769 155.363 7.0875 155.363 7.9884V15.2571L156.509 15.6666V15.769H152.189V15.6666L153.356 15.2571V8.316C153.356 7.61985 153.179 7.09432 152.824 6.73942C152.482 6.38452 152.018 6.20706 151.431 6.20706C150.967 6.20706 150.524 6.29579 150.1 6.47324C149.691 6.65069 149.2 6.93734 148.626 7.3332V15.2571L149.814 15.6666V15.769H145.432V15.6666Z" fill="#242424"/>
<path d="M170.254 16.0351C168.999 16.0351 167.463 15.223 165.648 13.5986C164.979 14.4312 164.33 15.0455 163.702 15.4414C163.074 15.8372 162.269 16.0351 161.286 16.0351C160.426 16.0351 159.676 15.885 159.034 15.5847C158.406 15.2844 157.922 14.8749 157.58 14.3562C157.253 13.8238 157.089 13.2369 157.089 12.5953C157.089 11.7081 157.41 10.93 158.051 10.2611C158.693 9.57864 159.71 8.96438 161.102 8.41838C160.078 6.93052 159.566 5.64058 159.566 4.54858C159.566 3.85242 159.744 3.23134 160.099 2.68534C160.454 2.12568 160.952 1.68888 161.593 1.37493C162.235 1.04733 162.979 0.883524 163.825 0.883524C164.562 0.883524 165.204 1.0132 165.75 1.27255C166.296 1.51825 166.712 1.85268 166.999 2.27583C167.286 2.69899 167.429 3.16992 167.429 3.68862C167.429 4.34382 167.135 4.9649 166.548 5.55186C165.975 6.12516 165.02 6.73259 163.682 7.37415L163.62 7.2513C164.248 6.89639 164.74 6.47324 165.095 5.98184C165.45 5.47678 165.627 4.8284 165.627 4.0367C165.627 3.12214 165.409 2.41234 164.972 1.90728C164.535 1.40223 163.989 1.1497 163.334 1.1497C162.706 1.1497 162.187 1.36128 161.778 1.78443C161.368 2.20758 161.163 2.80136 161.163 3.56577C161.163 4.39843 161.416 5.25156 161.921 6.12516C162.426 6.99877 163.245 8.07713 164.378 9.36024C165.265 10.3567 166.071 11.1689 166.794 11.7968L167.388 10.9163C168.139 9.82434 168.514 9.03946 168.514 8.56171C168.514 8.27505 168.398 8.05665 168.166 7.9065C167.934 7.75635 167.586 7.64032 167.122 7.55842L166.651 7.47652V7.37415H171.319V7.47652L169.906 7.88603L166.958 11.9606C168.459 13.2437 169.681 13.8852 170.623 13.8852C171.032 13.8852 171.34 13.7214 171.544 13.3938C171.749 13.0526 171.872 12.411 171.913 11.4692H172.036V12.5134C172.036 13.5645 171.892 14.4176 171.606 15.0728C171.319 15.7144 170.869 16.0351 170.254 16.0351ZM159.239 11.6125C159.239 12.5817 159.532 13.3461 160.119 13.9057C160.72 14.4517 161.546 14.7247 162.597 14.7247C163.252 14.7247 163.805 14.6224 164.255 14.4176C164.706 14.1992 165.115 13.8784 165.484 13.4553C164.747 12.7864 163.846 11.8377 162.781 10.6092C162.139 9.83117 161.614 9.15549 161.204 8.58218C159.894 9.33294 159.239 10.343 159.239 11.6125Z" fill="#242424"/>
<path d="M172.608 15.6666L174.02 15.2571V1.70253L172.608 1.29303V1.19065H178.914C180.443 1.19065 181.589 1.46365 182.354 2.00966C183.118 2.55566 183.5 3.27912 183.5 4.18002C183.5 4.98538 183.227 5.64741 182.681 6.16611C182.149 6.68482 181.487 7.04655 180.695 7.2513V7.29225C181.801 7.45605 182.729 7.89968 183.48 8.62313C184.244 9.33294 184.627 10.2884 184.627 11.4897C184.627 12.3223 184.422 13.0594 184.012 13.701C183.616 14.3425 183.023 14.8476 182.231 15.2161C181.439 15.5847 180.484 15.769 179.364 15.769H172.608V15.6666ZM178.873 15.5437C179.965 15.5437 180.825 15.223 181.453 14.5814C182.094 13.9262 182.415 12.998 182.415 11.7968C182.415 10.5683 182.081 9.62641 181.412 8.97121C180.743 8.316 179.842 7.9884 178.709 7.9884H176.17V15.5437H178.873ZM178.648 7.76317C179.494 7.76317 180.17 7.49017 180.675 6.94417C181.194 6.38452 181.453 5.57233 181.453 4.50763C181.453 3.45657 181.194 2.67851 180.675 2.17346C180.17 1.66841 179.48 1.41588 178.607 1.41588H176.17V7.76317H178.648Z" fill="#242424"/>
<path d="M188.064 16.0761C187.545 16.0761 187.094 15.9805 186.712 15.7894C186.33 15.612 186.036 15.3731 185.832 15.0728C185.627 14.7725 185.525 14.4585 185.525 14.1309C185.525 13.817 185.627 13.5576 185.832 13.3529C186.05 13.1481 186.473 12.9161 187.101 12.6567L191.237 10.9368V8.00888C191.237 7.21717 191.08 6.64387 190.766 6.28896C190.466 5.93406 190.022 5.75661 189.435 5.75661C188.848 5.75661 188.371 5.91359 188.002 6.22754C187.647 6.54149 187.47 6.96464 187.47 7.497C187.47 7.8792 187.552 8.2887 187.715 8.72551C187.497 8.90296 187.231 8.99168 186.917 8.99168C186.63 8.99168 186.405 8.91661 186.241 8.76646C186.077 8.61631 185.995 8.40473 185.995 8.13173C185.995 7.84508 186.118 7.55842 186.364 7.27177C186.61 6.97147 187.04 6.60974 187.654 6.18659C188.255 5.77709 188.76 5.49043 189.169 5.32663C189.592 5.14918 190.009 5.06046 190.418 5.06046C191.237 5.06046 191.906 5.31981 192.425 5.83851C192.957 6.34356 193.223 7.05337 193.223 7.96793V14.4176C193.223 14.6633 193.298 14.8681 193.448 15.0319C193.612 15.182 193.81 15.2571 194.042 15.2571C194.302 15.2571 194.588 15.1888 194.902 15.0523V15.1547C194.37 15.455 193.947 15.6734 193.633 15.8099C193.319 15.9464 193.005 16.0147 192.691 16.0147C192.24 16.0147 191.886 15.8782 191.626 15.6052C191.367 15.3185 191.237 14.909 191.237 14.3766V13.9876C190.95 14.5882 190.527 15.0865 189.968 15.4823C189.422 15.8782 188.787 16.0761 188.064 16.0761ZM187.388 13.5167C187.388 13.9398 187.552 14.2947 187.879 14.5814C188.22 14.8681 188.664 15.0114 189.21 15.0114C189.674 15.0114 190.091 14.8749 190.459 14.6019C190.841 14.3289 191.101 13.9944 191.237 13.5986V11.1825L188.616 12.2882C188.139 12.4929 187.811 12.684 187.634 12.8615C187.47 13.0389 187.388 13.2573 187.388 13.5167Z" fill="#242424"/>
<path d="M198.439 16.0761C197.784 16.0761 197.259 15.8918 196.863 15.5233C196.467 15.1411 196.269 14.6155 196.269 13.9467V6.16611H195.122V6.04326C195.805 5.79756 196.433 5.38123 197.006 4.79428C197.579 4.19367 197.968 3.55894 198.173 2.89009H198.275V5.36758H201.019V6.16611H198.275V13.701C198.275 14.1105 198.391 14.4312 198.624 14.6633C198.856 14.8954 199.19 15.0114 199.627 15.0114C199.954 15.0114 200.241 14.95 200.487 14.8271C200.732 14.7043 201.019 14.5063 201.347 14.2333L201.429 14.3357C200.705 14.9909 200.139 15.4482 199.729 15.7075C199.32 15.9532 198.89 16.0761 198.439 16.0761Z" fill="#242424"/>
<path d="M201.839 15.6666L203.047 15.2571V1.51825L201.839 1.29303V1.19065L205.012 0.105469H205.033V7.06702C205.934 6.39817 206.705 5.89994 207.347 5.57233C208.002 5.23108 208.582 5.06046 209.087 5.06046C209.906 5.06046 210.554 5.32663 211.032 5.85899C211.524 6.37769 211.769 7.0875 211.769 7.9884V15.2571L212.916 15.6666V15.769H208.596V15.6666L209.763 15.2571V8.316C209.763 7.61985 209.585 7.09432 209.23 6.73942C208.889 6.38452 208.425 6.20706 207.838 6.20706C207.374 6.20706 206.93 6.29579 206.507 6.47324C206.098 6.65069 205.606 6.93734 205.033 7.3332V15.2571L206.22 15.6666V15.769H201.839V15.6666Z" fill="#242424"/>
</g>
</svg>
