<svg width="34" height="34" viewBox="0 0 34 34" fill="none" xmlns="http://www.w3.org/2000/svg">
<g id="fi_1212158" clip-path="url(#clip0_126_2256)">
<path id="Vector" d="M20.8455 13.8419L15.737 18.667L13.2853 16.1447C13.0135 15.8649 12.5659 15.8585 12.2864 16.1303C12.0066 16.4024 12.0002 16.8496 12.272 17.1295L15.2125 20.148C15.4857 20.4229 15.9271 20.4323 16.2117 20.169L21.8306 14.8693C21.967 14.7406 22.0467 14.5629 22.052 14.3755C22.0573 14.1881 21.9878 14.0063 21.8588 13.8701C21.5853 13.5859 21.1345 13.5734 20.8455 13.8419Z" fill="#9B735A"/>
<path id="Vector_2" d="M17.0544 6.41602C11.2161 6.41602 6.46875 11.1633 6.46875 17.0017C6.46875 22.8404 11.2161 27.5877 17.0544 27.5877C22.8931 27.5877 27.6404 22.8404 27.6404 17.0017C27.6404 11.1633 22.8931 6.41602 17.0544 6.41602ZM17.0544 26.1706C11.9955 26.1706 7.88586 22.0538 7.88586 17.0017C7.88586 11.9497 11.9955 7.83313 17.0544 7.83313C22.1184 7.83313 26.2233 11.938 26.2233 17.0017C26.2233 22.0654 22.1184 26.1706 17.0544 26.1706Z" fill="#9B735A"/>
<path id="Vector_3" d="M31.6231 13.1047L31.857 8.90295C31.8733 8.62091 31.72 8.35603 31.4673 8.22982L27.7261 6.33804L25.8343 2.59681C25.7056 2.34633 25.4424 2.19382 25.1612 2.20711L20.9522 2.43407L17.4448 0.11687C17.2085 -0.0389567 16.9021 -0.0389567 16.6654 0.11687L13.1581 2.43407L8.95658 2.20019C8.67426 2.18358 8.40966 2.33692 8.28345 2.58989L6.39139 6.33112L2.65044 8.2229C2.39968 8.35133 2.24745 8.61455 2.26073 8.89603L2.49434 13.0978L0.177417 16.6052C0.0215902 16.8415 0.0215902 17.1479 0.177417 17.3846L2.48742 20.8988L2.25354 25.1006C2.23721 25.3827 2.39027 25.6475 2.64324 25.7738L6.38447 27.6655L8.27625 31.4068C8.40468 31.6575 8.6679 31.8098 8.94938 31.7965L13.1512 31.5626L16.6585 33.8795C16.8935 34.0403 17.2029 34.0403 17.4379 33.8795L20.9453 31.5626L25.1471 31.7965C25.4291 31.8128 25.6937 31.6595 25.8202 31.4068L27.712 27.6655L31.4532 25.7738C31.7037 25.645 31.8562 25.3821 31.8429 25.1006L31.609 20.8988L33.9259 17.3915C34.0818 17.1551 34.0818 16.8485 33.9259 16.6121L31.6231 13.1047ZM30.3051 20.3179C30.2188 20.4446 30.1786 20.5971 30.1919 20.7502L30.4114 24.725L26.8758 26.5105C26.741 26.5781 26.6317 26.6877 26.5642 26.8225L24.7784 30.358L20.8036 30.1386C20.6513 30.133 20.501 30.1723 20.3712 30.2518L17.0551 32.4414L13.7393 30.2518C13.6242 30.174 13.4886 30.1319 13.3496 30.1314H13.3142L9.33909 30.3511L7.55358 26.8153C7.48605 26.6805 7.37672 26.5712 7.24165 26.5036L3.69888 24.725L3.91864 20.7502C3.92418 20.598 3.8846 20.4477 3.80516 20.3179L1.61584 17.0018L3.80516 13.6857C3.89179 13.5592 3.93193 13.4064 3.91864 13.2536L3.69888 9.27854L7.23473 7.49304C7.36952 7.4255 7.47885 7.31617 7.54639 7.18138L9.33189 3.64553L13.307 3.86529C13.4589 3.87055 13.6092 3.83125 13.7393 3.75181L17.0551 1.56249L20.3712 3.75181C20.498 3.83844 20.6508 3.87858 20.8036 3.86529L24.7784 3.64553L26.5642 7.18138C26.6317 7.31617 26.741 7.4255 26.8758 7.49304L30.4114 9.27854L30.1919 13.2536C30.1864 13.4056 30.226 13.5559 30.3051 13.6857L32.4947 17.0018L30.3051 20.3179Z" fill="#9B735A"/>
</g>
<defs>
<clipPath id="clip0_126_2256">
<rect width="34" height="34" fill="white"/>
</clipPath>
</defs>
</svg>
