<svg width="60" height="60" viewBox="0 0 60 60" fill="none" xmlns="http://www.w3.org/2000/svg">
<g id="Arrow - Left 2">
<g id="Iconly/Bold/Arrow---Left-2">
<g id="Arrow---Left-2">
<path id="Vector" d="M43.9774 27.1725C43.8361 27.0275 43.3027 26.4075 42.8059 25.8975C39.8931 22.69 32.2944 17.44 28.3173 15.8375C27.7133 15.58 26.1863 15.035 25.3704 15C24.5887 15 23.8434 15.18 23.1322 15.545C22.2457 16.055 21.5346 16.8575 21.1449 17.805C20.8941 18.4625 20.5044 20.43 20.5044 20.465C20.1147 22.6175 19.9004 26.115 19.9004 29.98C19.9004 33.6625 20.1147 37.0175 20.4338 39.2025C20.4703 39.2375 20.86 41.6825 21.2862 42.52C22.068 44.05 23.595 45 25.2292 45H25.3704C26.4347 44.9625 28.6729 44.0125 28.6729 43.9775C32.4357 42.3725 39.859 37.38 42.8424 34.0625C42.8424 34.0625 43.6827 33.21 44.048 32.6775C44.6179 31.9125 44.9004 30.965 44.9004 30.0175C44.9004 28.96 44.5813 27.975 43.9774 27.1725Z" fill="#9B735A"/>
</g>
</g>
</g>
</svg>
