<svg width="100" height="100" viewBox="0 0 100 100" fill="none" xmlns="http://www.w3.org/2000/svg">
<g id="Arrow - Left 2">
<g id="Iconly/Bold/Arrow---Left-2">
<g id="Arrow---Left-2">
<path id="Vector" d="M73.2946 45.2875C73.0592 45.0458 72.1702 44.0125 71.3422 43.1625C66.4875 37.8167 53.8231 29.0667 47.1946 26.3958C46.1879 25.9667 43.6429 25.0583 42.2831 25C40.9801 25 39.738 25.3 38.5528 25.9083C37.0753 26.7583 35.89 28.0958 35.2405 29.675C34.8225 30.7708 34.173 34.05 34.173 34.1083C33.5235 37.6958 33.1663 43.525 33.1663 49.9667C33.1663 56.1042 33.5235 61.6958 34.0553 65.3375C34.1162 65.3958 34.7656 69.4708 35.476 70.8667C36.7789 73.4167 39.324 75 42.0476 75H42.2831C44.0569 74.9375 47.7872 73.3542 47.7872 73.2958C54.0585 70.6208 66.4307 62.3 71.4031 56.7708C71.4031 56.7708 72.8035 55.35 73.4123 54.4625C74.3622 53.1875 74.833 51.6083 74.833 50.0292C74.833 48.2667 74.3013 46.625 73.2946 45.2875Z" fill="white"/>
</g>
</g>
</g>
</svg>
