<svg width="34" height="34" viewBox="0 0 34 34" fill="none" xmlns="http://www.w3.org/2000/svg">
<g id="fi_10464193">
<path id="Vector" d="M23.0279 17.7746L19.5704 17.2112L18.0233 13.7064C17.9294 13.4943 17.7844 13.3158 17.6047 13.191C17.4249 13.0661 17.2176 13 17.006 13C16.7944 13 16.587 13.0661 16.4073 13.191C16.2275 13.3158 16.0826 13.4943 15.9887 13.7064L14.4415 17.2112L10.9841 17.7746C10.7718 17.8059 10.5717 17.9039 10.4072 18.0572C10.2427 18.2105 10.1205 18.4129 10.0547 18.6409C9.98892 18.8688 9.98233 19.113 10.0357 19.345C10.089 19.5769 10.2001 19.7872 10.3561 19.9514L12.8584 22.6806L12.2663 26.5147C12.2331 26.7462 12.2577 26.9834 12.3374 27.2003C12.4171 27.4171 12.5488 27.6052 12.7179 27.7436C12.8871 27.8821 13.0871 27.9657 13.296 27.9851C13.5049 28.0045 13.7146 27.959 13.9018 27.8537L16.9929 26.0244L20.084 27.8537C20.2473 27.9499 20.4292 28.0002 20.6139 28C20.8496 27.9977 21.0787 27.9119 21.2681 27.7549C21.4395 27.616 21.5726 27.4262 21.6524 27.207C21.7322 26.9878 21.7554 26.7479 21.7195 26.5147L21.1536 22.666L23.6559 19.9514C23.8079 19.7866 23.9156 19.5774 23.9666 19.3476C24.0177 19.1178 24.01 18.8765 23.9446 18.6513C23.8792 18.4261 23.7586 18.2259 23.5966 18.0735C23.4345 17.9211 23.2375 17.8226 23.0279 17.7892V17.7746ZM19.9924 21.8867C19.9168 21.9697 19.8603 22.072 19.8278 22.1848C19.7953 22.2976 19.7878 22.4175 19.8059 22.5343L20.3947 26.3756L17.3102 24.5464C17.2164 24.4913 17.112 24.4625 17.006 24.4625C16.9 24.4625 16.7956 24.4913 16.7018 24.5464L13.6173 26.3756L14.206 22.5343C14.2242 22.4175 14.2167 22.2976 14.1842 22.1848C14.1517 22.072 14.0952 21.9697 14.0196 21.8867L11.5238 19.1648L14.9714 18.6051C15.0768 18.588 15.1769 18.5425 15.263 18.4723C15.3491 18.4022 15.4185 18.3096 15.4654 18.2027L17.006 14.7088L18.5466 18.2027C18.5934 18.3096 18.6629 18.4022 18.749 18.4723C18.8351 18.5425 18.9351 18.588 19.0405 18.6051L22.4882 19.1648L19.9924 21.8867Z" fill="#9B735A"/>
<path id="Vector_2" d="M32.9056 1.3331C32.8475 1.23242 32.764 1.1487 32.6634 1.09027C32.5628 1.03184 32.4487 1.00073 32.3324 1.00003H20.3351C20.2193 1.00131 20.1059 1.03269 20.006 1.0911C19.906 1.1495 19.8231 1.2329 19.7652 1.3331L17.2457 5.47988L14.2097 1.27648C14.1481 1.191 14.067 1.12137 13.9731 1.07331C13.8792 1.02525 13.7753 1.00014 13.6699 1.00003H1.67252C1.55501 0.99897 1.43932 1.02898 1.33716 1.08702C1.235 1.14505 1.15 1.22905 1.09079 1.3305C1.03158 1.43194 1.00026 1.54723 1 1.66467C0.999741 1.78212 1.03055 1.89754 1.08931 1.99925L7.55122 13.6235C6.16621 15.3939 5.30686 17.5177 5.07119 19.7526C4.83552 21.9875 5.23301 24.2436 6.21832 26.2636C7.20364 28.2837 8.73711 29.9863 10.6439 31.1774C12.5506 32.3685 14.7539 33 17.0025 33C19.251 33 21.4543 32.3685 23.3611 31.1774C25.2678 29.9863 26.8013 28.2837 27.7866 26.2636C28.7719 24.2436 29.1694 21.9875 28.9337 19.7526C28.6981 17.5177 27.8387 15.3939 26.4537 13.6235L32.9156 1.99925C32.9726 1.89711 33.0017 1.78177 32.9999 1.66484C32.9982 1.5479 32.9656 1.43349 32.9056 1.3331ZM2.8056 2.33232H13.3366L16.5026 6.71558L15.0029 9.16035C12.5287 9.5813 10.2488 10.7672 8.48435 12.551L2.8056 2.33232ZM17.0025 31.6429C14.8933 31.6429 12.8314 31.0178 11.0777 29.8466C9.32395 28.6755 7.95708 27.0108 7.14993 25.0633C6.34277 23.1157 6.13158 20.9727 6.54307 18.9051C6.95455 16.8376 7.97023 14.9385 9.46166 13.4479C10.9531 11.9573 12.8533 10.9422 14.922 10.5309C16.9906 10.1197 19.1349 10.3307 21.0835 11.1374C23.0322 11.9441 24.6977 13.3102 25.8695 15.063C27.0413 16.8158 27.6668 18.8765 27.6668 20.9845C27.6668 23.8113 26.5432 26.5223 24.5433 28.5211C22.5433 30.5199 19.8308 31.6429 17.0025 31.6429ZM25.5206 12.551C24.4072 11.4238 23.0809 10.5289 21.6186 9.91821C20.1564 9.30755 18.5873 8.99334 17.0025 8.99381C16.8892 8.99381 16.7792 8.99381 16.6692 8.99381L20.7116 2.33232H31.1993L25.5206 12.551Z" fill="#9B735A"/>
</g>
</svg>
