<svg width="34" height="34" viewBox="0 0 34 34" fill="none" xmlns="http://www.w3.org/2000/svg">
<g id="fi_1212158" clip-path="url(#clip0_126_953)">
<path id="Vector" d="M20.8455 13.8416L15.737 18.6667L13.2853 16.1444C13.0135 15.8646 12.5659 15.8582 12.2864 16.13C12.0066 16.4021 12.0002 16.8494 12.272 17.1292L15.2125 20.1478C15.4857 20.4226 15.9271 20.432 16.2117 20.1688L21.8306 14.869C21.967 14.7403 22.0467 14.5626 22.052 14.3753C22.0573 14.1879 21.9878 14.006 21.8588 13.8699C21.5853 13.5856 21.1345 13.5732 20.8455 13.8416Z" fill="#9B735A"/>
<path id="Vector_2" d="M17.0549 6.41602C11.2166 6.41602 6.46924 11.1633 6.46924 17.0017C6.46924 22.8404 11.2166 27.5877 17.0549 27.5877C22.8936 27.5877 27.6409 22.8404 27.6409 17.0017C27.6409 11.1633 22.8936 6.41602 17.0549 6.41602ZM17.0549 26.1706C11.996 26.1706 7.88635 22.0538 7.88635 17.0017C7.88635 11.9497 11.996 7.83313 17.0549 7.83313C22.1189 7.83313 26.2238 11.938 26.2238 17.0017C26.2238 22.0654 22.1189 26.1706 17.0549 26.1706Z" fill="#9B735A"/>
<path id="Vector_3" d="M31.6226 13.1047L31.8565 8.90295C31.8729 8.62091 31.7195 8.35603 31.4668 8.22982L27.7256 6.33804L25.8338 2.59681C25.7051 2.34633 25.4419 2.19382 25.1607 2.20711L20.9517 2.43407L17.4444 0.11687C17.208 -0.0389567 16.9016 -0.0389567 16.6649 0.11687L13.1576 2.43407L8.95609 2.20019C8.67377 2.18358 8.40917 2.33692 8.28296 2.58989L6.3909 6.33112L2.64995 8.2229C2.39919 8.35133 2.24696 8.61455 2.26025 8.89603L2.49385 13.0978L0.176929 16.6052C0.0211019 16.8415 0.0211019 17.1479 0.176929 17.3846L2.48693 20.8988L2.25305 25.1006C2.23672 25.3827 2.38978 25.6475 2.64275 25.7738L6.38398 27.6655L8.27576 31.4068C8.40419 31.6575 8.66741 31.8098 8.94889 31.7965L13.1507 31.5626L16.658 33.8795C16.893 34.0403 17.2024 34.0403 17.4374 33.8795L20.9448 31.5626L25.1466 31.7965C25.4286 31.8128 25.6932 31.6595 25.8197 31.4068L27.7115 27.6655L31.4527 25.7738C31.7032 25.645 31.8557 25.3821 31.8424 25.1006L31.6085 20.8988L33.9254 17.3915C34.0813 17.1551 34.0813 16.8485 33.9254 16.6121L31.6226 13.1047ZM30.3046 20.3179C30.2183 20.4446 30.1781 20.5971 30.1914 20.7502L30.4109 24.725L26.8753 26.5105C26.7405 26.5781 26.6312 26.6877 26.5637 26.8225L24.7779 30.358L20.8031 30.1386C20.6508 30.133 20.5005 30.1723 20.3707 30.2518L17.0546 32.4414L13.7388 30.2518C13.6237 30.174 13.4881 30.1319 13.3491 30.1314H13.3137L9.3386 30.3511L7.55309 26.8153C7.48556 26.6805 7.37623 26.5712 7.24116 26.5036L3.69839 24.725L3.91815 20.7502C3.92369 20.598 3.88411 20.4477 3.80467 20.3179L1.61535 17.0018L3.80467 13.6857C3.89131 13.5592 3.93144 13.4064 3.91815 13.2536L3.69839 9.27854L7.23424 7.49304C7.36904 7.4255 7.47836 7.31617 7.5459 7.18138L9.3314 3.64553L13.3065 3.86529C13.4585 3.87055 13.6087 3.83125 13.7388 3.75181L17.0546 1.56249L20.3707 3.75181C20.4975 3.83844 20.6503 3.87858 20.8031 3.86529L24.7779 3.64553L26.5637 7.18138C26.6312 7.31617 26.7405 7.4255 26.8753 7.49304L30.4109 9.27854L30.1914 13.2536C30.1859 13.4056 30.2255 13.5559 30.3046 13.6857L32.4942 17.0018L30.3046 20.3179Z" fill="#9B735A"/>
</g>
<defs>
<clipPath id="clip0_126_953">
<rect width="34" height="34" fill="white"/>
</clipPath>
</defs>
</svg>
