<svg width="34" height="34" viewBox="0 0 34 34" fill="none" xmlns="http://www.w3.org/2000/svg">
<g id="fi_3251480" clip-path="url(#clip0_126_947)">
<g id="Page-1">
<g id="030---Brush-Settings">
<path id="Shape" d="M7.96657 12.4814C8.17076 12.4234 8.39035 12.4799 8.54117 12.6293L11.3331 15.419C10.9197 16.1423 10.5563 16.8932 10.2457 17.6664C10.0033 17.5669 9.74384 17.5157 9.48183 17.5156C8.93522 17.5146 8.4115 17.735 8.03003 18.1265C7.56028 18.6074 7.35102 19.2852 7.4679 19.9472C5.89431 20.0511 4.41398 20.7304 3.30913 21.8557C0.929133 24.2839 1.09063 26.733 2.12707 29.8984C2.61893 31.3995 0.3704 32.3867 0.346599 32.3957C0.122618 32.4909 -0.0156314 32.7184 0.00311051 32.961C0.0218524 33.2036 0.193401 33.4072 0.429333 33.4667C1.79402 33.8166 3.19686 33.9957 4.60567 34C7.82093 34 10.7053 33.014 12.5084 31.1836C13.6176 30.0458 14.2812 28.5474 14.3784 26.9614C14.4906 26.9823 14.6043 26.9937 14.7184 26.9954C15.2653 26.9963 15.7894 26.776 16.1713 26.3845C16.7512 25.7886 16.9248 24.9066 16.6139 24.1354C17.4011 23.8086 18.1636 23.4251 18.8953 22.9879L21.3654 25.4586C21.5178 25.6107 21.5746 25.8341 21.5133 26.0406C20.9367 28.2385 21.5681 30.5775 23.1725 32.1866C24.3272 33.3526 25.9005 34.0079 27.5415 34.0062C28.3631 34.004 29.1769 33.8468 29.9402 33.5427C30.118 33.4726 30.2485 33.3177 30.2873 33.1306C30.3261 32.9435 30.2681 32.7495 30.1329 32.6145L26.8513 29.3386C26.7181 29.2041 26.6524 29.0168 26.6722 28.8286L26.8825 27.3926C26.9201 27.1271 27.1295 26.9188 27.3953 26.8826L28.8182 26.6747C29.0061 26.6517 29.1945 26.7141 29.3316 26.8447L32.6126 30.1313C32.7476 30.2665 32.9417 30.3246 33.1288 30.2858C33.3158 30.2469 33.4708 30.1164 33.5408 29.9387C34.4982 27.6169 33.9638 24.947 32.1865 23.1727C30.5744 21.5697 28.2336 20.9409 26.0353 21.5203C25.8306 21.5787 25.6104 21.5214 25.4601 21.3707L23.1595 19.0706C27.0944 14.4732 36.1577 3.25604 33.4796 0.532639C33.0946 0.16447 32.5745 -0.0282864 32.0425 -2.8125e-05C28.3507 -2.8125e-05 19.2755 7.39044 15.1457 11.0579L12.6246 8.53681C12.4777 8.38594 12.423 8.16794 12.4812 7.96561C13.0651 5.76661 12.435 3.42301 10.8271 1.81331C9.05487 0.0345826 6.38503 -0.500102 4.0645 0.458972C3.88686 0.528966 3.75641 0.683709 3.71748 0.870627C3.67854 1.05755 3.73635 1.2515 3.87127 1.38661L7.15793 4.67781C7.28879 4.80708 7.3497 4.99127 7.3217 5.17307L7.11827 6.61127C7.07899 6.87255 6.87403 7.07774 6.6128 7.11731L5.1644 7.32244C4.98292 7.34715 4.8005 7.28403 4.6731 7.15244L1.38643 3.87144C1.25147 3.73699 1.05799 3.67936 0.871461 3.71803C0.68493 3.75671 0.530314 3.88652 0.459933 4.06354C-0.499268 6.38386 0.0349441 9.05357 1.81313 10.8261C3.4226 12.4353 5.76701 13.0659 7.96657 12.4814ZM13.6899 14.0142L20.21 20.6442C18.9316 21.7265 17.4819 22.5883 15.9203 23.1942L11.1847 18.3775C11.7764 16.7967 12.6221 15.3229 13.6882 14.0142H13.6899ZM11.702 30.3909C9.6541 32.47 5.9736 33.3092 2.0687 32.6575C2.9255 31.9464 3.64007 30.8725 3.206 29.5488C2.1112 26.2055 2.34183 24.4652 4.1206 22.6536C5.15304 21.6035 6.57611 21.0306 8.04817 21.0726L8.6001 21.6342C6.93917 22.0759 5.51606 23.1481 4.63343 24.6228C4.51404 24.7912 4.49565 25.0111 4.58543 25.197C4.67521 25.3829 4.85895 25.5052 5.06506 25.5164C5.27118 25.5275 5.46705 25.4257 5.57637 25.2506C7.0497 23.0406 8.73497 22.674 9.58893 22.6389L10.074 23.1324L6.97093 26.2361C6.82363 26.3783 6.76455 26.589 6.81641 26.7872C6.86826 26.9853 7.02299 27.14 7.22111 27.1919C7.41924 27.2437 7.62992 27.1847 7.7722 27.0373L10.869 23.9405L11.4414 24.523C11.3909 25.883 10.7965 28.1446 7.70817 29.5188C7.46848 29.6292 7.33675 29.8905 7.39052 30.1489C7.44428 30.4072 7.66928 30.5943 7.93313 30.6C8.01222 30.6001 8.09044 30.5835 8.16263 30.5512C11.1433 29.2247 12.1531 27.1643 12.4557 25.5566L13.2598 26.3721C13.3077 27.8674 12.7447 29.3178 11.7003 30.3892L11.702 30.3909ZM15.3701 25.5923C15.2005 25.7662 14.968 25.8643 14.7252 25.8643C14.4827 25.8643 14.2505 25.7662 14.0815 25.5923L8.8381 20.2606C8.47494 19.8885 8.47494 19.2947 8.8381 18.9227C9.00716 18.7488 9.23934 18.6507 9.48183 18.6507C9.72471 18.6505 9.95733 18.7486 10.1267 18.9227L15.3684 24.2533C15.73 24.6258 15.73 25.2182 15.3684 25.5906L15.3701 25.5923ZM24.6589 22.1736C25.0962 22.6114 25.7352 22.7802 26.3317 22.6156C28.1382 22.1404 30.0612 22.6579 31.3852 23.9756C32.6166 25.2005 33.132 26.9723 32.7497 28.6665L30.1306 26.0428C29.7425 25.6657 29.2039 25.4855 28.6669 25.5532L27.2349 25.7623C26.4685 25.8666 25.8658 26.4693 25.7616 27.2357L25.5497 28.6733C25.4853 29.2096 25.6679 29.7462 26.0461 30.1319L28.6646 32.7459C26.9704 33.1281 25.1987 32.6127 23.9738 31.3814C22.6583 30.059 22.1409 28.1391 22.6138 26.3347C22.7793 25.7364 22.6112 25.0952 22.1735 24.6551L19.8717 22.3533C20.4257 21.9653 20.9443 21.5292 21.4215 21.0499C21.4459 21.0256 21.8182 20.613 22.4171 19.9268L24.6589 22.1736ZM32.6715 1.32767C34.5251 3.21297 25.0011 15.6077 21.0107 19.8429L14.477 13.1993C17.5194 10.2799 28.4136 1.13331 32.0425 1.13331C32.2698 1.11097 32.4965 1.18102 32.6715 1.32767ZM1.25157 5.33854L3.8673 7.95031C4.24833 8.33993 4.79306 8.52326 5.33213 8.44331L6.7726 8.23931C7.53117 8.12656 8.12668 7.53082 8.23913 6.77221L8.44313 5.34137C8.52765 4.80172 8.34635 4.25447 7.95637 3.87201L5.33837 1.25174C7.03197 0.868592 8.80352 1.38466 10.0264 2.61741C11.3476 3.94053 11.8656 5.86639 11.3864 7.67377C11.2229 8.26896 11.3914 8.90611 11.8278 9.34261L14.3025 11.8172C13.8412 12.2394 13.4842 12.5783 13.2711 12.7953C12.7815 13.3003 12.3385 13.8484 11.9474 14.433L9.3464 11.8314C8.90924 11.3937 8.27102 11.224 7.67417 11.3866C5.86626 11.8657 3.93994 11.3478 2.6161 10.0266C1.38472 8.80289 0.869247 7.03192 1.25157 5.33854Z" fill="#9B735A"/>
</g>
</g>
</g>
<defs>
<clipPath id="clip0_126_947">
<rect width="34" height="34" fill="white"/>
</clipPath>
</defs>
</svg>
