<svg width="34" height="34" viewBox="0 0 34 34" fill="none" xmlns="http://www.w3.org/2000/svg">
<g id="smile-beam" clip-path="url(#clip0_126_97)">
<path id="Vector" d="M13.4583 15.5833C13.0673 15.5833 12.75 15.266 12.75 14.875C12.75 13.1537 11.6577 11.3333 10.625 11.3333C9.59225 11.3333 8.5 13.1537 8.5 14.875C8.5 15.266 8.18267 15.5833 7.79167 15.5833C7.40067 15.5833 7.08333 15.266 7.08333 14.875C7.08333 12.5347 8.59775 9.91667 10.625 9.91667C12.6522 9.91667 14.1667 12.5347 14.1667 14.875C14.1667 15.266 13.8493 15.5833 13.4583 15.5833ZM26.9167 14.875C26.9167 12.5347 25.4022 9.91667 23.375 9.91667C21.3477 9.91667 19.8333 12.5347 19.8333 14.875C19.8333 15.266 20.1507 15.5833 20.5417 15.5833C20.9327 15.5833 21.25 15.266 21.25 14.875C21.25 13.1537 22.3422 11.3333 23.375 11.3333C24.4077 11.3333 25.5 13.1537 25.5 14.875C25.5 15.266 25.8173 15.5833 26.2083 15.5833C26.5993 15.5833 26.9167 15.266 26.9167 14.875ZM34 17C34 7.62592 26.3741 0 17 0C7.62592 0 0 7.62592 0 17C0 26.3741 7.62592 34 17 34C26.3741 34 34 26.3741 34 17ZM32.5833 17C32.5833 25.5921 25.5921 32.5833 17 32.5833C8.40792 32.5833 1.41667 25.5921 1.41667 17C1.41667 8.40792 8.40792 1.41667 17 1.41667C25.5921 1.41667 32.5833 8.40792 32.5833 17ZM25.2379 22.508C25.5411 22.2615 25.5864 21.8167 25.3413 21.5135C25.0948 21.2118 24.6486 21.165 24.3454 21.4087C24.3128 21.4356 20.9879 24.0847 16.9986 24.0847C13.0092 24.0847 9.68575 21.4356 9.65175 21.4087C9.34575 21.165 8.90375 21.2118 8.65583 21.5135C8.41075 21.8167 8.45608 22.2615 8.75925 22.508C8.90942 22.6312 12.4964 25.5 16.9972 25.5C21.4979 25.5 25.0849 22.6312 25.2351 22.508H25.2379Z" fill="#9B735A"/>
</g>
<defs>
<clipPath id="clip0_126_97">
<rect width="34" height="34" fill="white"/>
</clipPath>
</defs>
</svg>
