<svg width="34" height="34" viewBox="0 0 34 34" fill="none" xmlns="http://www.w3.org/2000/svg">
<g id="hands-holding 1" clip-path="url(#clip0_126_1007)">
<path id="Vector" d="M33.9999 7.79167V26.5356C33.9999 27.4111 33.6755 28.2554 33.0862 28.9099L28.5571 34H26.6531L32.035 27.9607C32.3892 27.5683 32.5832 27.0612 32.5832 26.5356V7.79167C32.5832 6.62008 31.6298 5.66667 30.4582 5.66667C29.2867 5.66667 28.3332 6.62008 28.3332 7.79167V20.5417H28.3262C28.3262 21.3492 28.0527 22.1567 27.5045 22.8097L23.1157 27.3516L22.0971 26.367L26.4519 21.8634C26.7622 21.4922 26.9152 20.9738 26.9152 20.4864C26.9152 19.9991 26.7211 19.5103 26.374 19.1236C25.5962 18.2552 24.2518 18.1801 23.3806 18.9593L17.9278 23.9771C18.2423 24.5154 18.4137 25.1317 18.4137 25.7649V34.0014H16.9971V25.7649C16.9971 25.1728 16.7463 24.6018 16.3114 24.2009L10.6079 18.9522C9.74515 18.1787 8.40215 18.2523 7.62157 19.1222C6.92174 19.9028 6.90332 21.097 7.57624 21.8988L11.8985 26.3656L10.8799 27.3502L6.52507 22.8466C5.95982 22.1751 5.67932 21.3562 5.67507 20.5417H5.66374V7.79167C5.66374 6.62008 4.71032 5.66667 3.53874 5.66667C2.36715 5.66667 1.41374 6.62008 1.41374 7.79167V26.5356C1.41374 27.0612 1.60782 27.5683 1.96199 27.9607L7.3439 34H5.4399L0.91082 28.9099C0.321487 28.2554 -0.00292969 27.4111 -0.00292969 26.5356V7.79167C-0.00292969 5.8395 1.58657 4.25 3.53874 4.25C5.4909 4.25 7.0804 5.8395 7.0804 7.79167V17.7055C8.40215 16.7167 10.2849 16.7606 11.5599 17.901L16.9971 22.9047L22.4272 17.9067C23.7092 16.7592 25.592 16.7138 26.9137 17.7041V7.79167C26.9137 5.8395 28.5032 4.25 30.4554 4.25C32.4076 4.25 33.9971 5.8395 33.9971 7.79167H33.9999Z" fill="#9B735A"/>
</g>
<defs>
<clipPath id="clip0_126_1007">
<rect width="34" height="34" fill="white"/>
</clipPath>
</defs>
</svg>
