<svg width="26" height="18" viewBox="0 0 26 18" fill="none" xmlns="http://www.w3.org/2000/svg">
<path d="M24.875 2.90625C24.5625 1.8125 23.7813 1.03125 22.6875 0.71875C20.8125 0.25 12.8437 0.25 12.8437 0.25C12.8437 0.25 5.03126 0.25 3.00001 0.71875C1.90626 1.03125 1.125 1.8125 0.812495 2.90625C0.499995 4.9375 0.5 9 0.5 9C0.5 9 0.500005 13.0625 0.968755 15.0938C1.28125 16.1875 2.0625 16.9688 3.15625 17.2812C5.03125 17.75 13 17.75 13 17.75C13 17.75 20.8125 17.75 22.8437 17.2812C23.9375 16.9688 24.7188 16.1875 25.0313 15.0938C25.5 13.0625 25.5 9 25.5 9C25.5 9 25.5 4.9375 24.875 2.90625ZM10.5 12.75V5.25L17.0625 9L10.5 12.75Z" fill="white"/>
</svg>
